<?xml version="1.0" encoding="UTF-8"?>
<svg width="202px" height="40px" viewBox="0 0 202 40" version="1.1" xmlns="http://www.w3.org/2000/svg" xmlns:xlink="http://www.w3.org/1999/xlink">
    <!-- Generator: Sketch 48.2 (47327) - http://www.bohemiancoding.com/sketch -->
    <title>Page 1</title>
    <desc>Created with Sketch.</desc>
    <defs>
        <polygon id="path-1" points="0 0.0440087912 77.8775137 0.0440087912 77.8775137 39.7503297 0 39.7503297"></polygon>
    </defs>
    <g id="Logo-Parade" stroke="none" stroke-width="1" fill="none" fill-rule="evenodd" transform="translate(-48.000000, -306.000000)">
        <g id="Page-1" transform="translate(48.000000, 306.062176)">
            <path d="M8.37266492,34 C8.00498643,33.9277559 7.56648035,33.7089596 7.19776027,33.4189512 C3.82303413,30.1452622 8.15289109,26.3638006 13.071242,24.1820293 L13.071242,18 C14.245105,18.654325 14.8315158,18.7265691 14.9054681,18.8731213 L18.7228667,15.0906276 L17.4740097,11.8912469 C28.5574853,8.035477 33.0352469,6.58130684 42.0626393,5.0548926 L40.448187,3.5274463 L43.1635917,2 C49.1828949,4.03625105 54.9084719,4.54608785 53.8793887,9.63619945 C54.1741565,6.21802232 49.9172103,4.90937238 43.3114963,3.01760949 L42.0626393,3.81848674 L44.4853594,5.78146165 C33.69561,7.67219248 27.0159437,9.78171967 19.088462,12.5455718 L20.1904559,15.309424 L16.2261943,19.2364059 C16.8875989,19.3819261 23.7870391,21.7824937 30.9791637,16.6913501 C31.0531161,16.6913501 31.1270684,16.6180739 31.1270684,16.5458298 C30.906253,16.1815133 30.4656638,15.8182287 29.8782114,15.309424 C31.9342946,15.4549442 33.3289731,17.345675 33.0352469,19.2364059 L32.0811577,19.2364059 C32.2269792,18.654325 32.0811577,17.9267239 31.7863899,17.4911953 C26.2826699,21.5636973 19.7498667,22.1457782 14.245105,20.2550474 L14.245105,25.0551506 C11.6026111,26.000516 6.7582126,28.9088564 6.83216494,31.7449526 C6.97798644,33.1268787 7.71230185,33.6356834 8.37266492,34" id="Fill-1" fill="#FEFEFE"></path>
            <g id="Group-5">
                <mask id="mask-2" fill="white">
                    <use xlink:href="#path-1"></use>
                </mask>
                <g id="Clip-4"></g>
                <path d="M31.309417,33.7690213 C25.2974411,36.9088129 19.5768541,39.3758679 10.7758709,39.7504358 C-0.664262452,39.5265439 -2.49689002,31.674412 2.92918615,23.4498345 C8.06283283,15.1499189 16.2019471,7.74663182 29.1833192,3.0364138 C32.9235029,1.6909404 38.4963142,0.120514022 43.7766959,0.045176 C51.4766456,-0.0291009231 58.8831251,2.43795402 58.4439605,9.9897949 C58.1504904,15.7483786 50.0103354,23.8976182 45.7570993,29.8047558 C43.923431,32.3482098 43.6310015,33.9929131 46.710357,33.8422371 C58.0776431,33.0952235 68.3438958,29.0577422 77.8775137,24.8706459 C71.4232513,29.356972 38.0561089,46.4056481 37.9104145,34.7399268 C37.9832617,33.3191153 38.6430493,31.7497501 39.6691542,30.1039857 C40.7701877,28.4592824 42.2364979,26.6649641 43.7766959,24.9449228 C46.0505694,22.2529149 51.6972686,15.8979936 53.5309368,12.0090661 C56.7570274,4.75645512 49.5701302,4.38188721 43.4832258,2.13872413 L40.7701877,3.70915051 L42.3832329,5.27957688 C33.3637082,6.84894215 28.889849,8.3450916 17.816033,12.308296 L19.0627609,15.5977026 L15.24973,19.4866301 C15.1758422,19.335954 14.5899425,19.2627382 13.4171025,18.5889404 L13.4171025,24.9449228 C8.50303809,27.1880859 4.17695473,31.0759523 7.54873969,34.441758 C7.91609775,34.7399268 8.35526233,34.9648797 8.72262038,35.0391567 C14.8095248,38.5535162 31.309417,33.7690213 31.309417,33.7690213" id="Fill-3" fill="#FEFEFE" mask="url(#mask-2)"></path>
            </g>
            <path d="M108.895617,30.6258106 L114.039696,30.6258106 L114.039696,11 L108.895617,11 L108.895617,30.6258106 Z M94.8596753,22.8348039 L98.3874309,22.8348039 L95.0797038,15.2691613 L94.8596753,15.6433507 L91.4059578,22.8348039 L94.8596753,22.8348039 Z M94.8596753,11 L98.6074594,11 L108.013417,30.6258106 L101.841148,30.6258106 L100.150787,26.655363 L94.8596753,26.655363 L89.6426014,26.655363 L87.8062498,30.6258106 L82,30.6258106 L92.0681289,11 L94.8596753,11 Z M134.909034,16.8424577 C135.56912,16.6925694 136.231291,16.6181567 136.965414,16.6181567 C139.096875,16.6181567 140.787236,17.2166472 142.036498,18.4901669 C143.284716,19.7647497 143.872849,21.4868715 143.872849,23.6597215 C143.872849,25.9813968 143.284716,27.7789944 142.110536,29.0525141 C140.861274,30.3260338 139.243908,31 137.112447,31 C136.304286,31 135.56912,30.8511747 134.909034,30.7012863 C134.467934,30.5513979 134.09983,30.4004465 133.806806,30.2516211 C132.777573,29.7275433 131.896416,29.0525141 131.234245,28.0787711 L131.234245,28.5284363 C131.234245,28.9026257 131.234245,29.2034655 131.160207,29.5776549 C131.160207,29.9518444 131.088255,30.3260338 131.088255,30.6258106 L125.870138,30.6258106 C125.944176,30.1017328 126.016128,29.5776549 126.016128,29.0525141 C126.091209,28.5284363 126.091209,28.0043585 126.091209,27.5546933 L126.091209,11 L131.234245,11 L131.234245,18.8643563 C131.968369,18.1149144 132.850568,17.5164239 133.806806,17.1422345 C134.173868,16.9923461 134.540929,16.9168704 134.909034,16.8424577 Z M138.58278,23.4343574 C138.58278,22.1619007 138.288714,21.1870947 137.626542,20.4376528 C136.965414,19.6892739 136.084257,19.3140215 134.909034,19.3140215 C133.65873,19.3894972 132.777573,19.6892739 132.116445,20.4376528 C131.454274,21.1870947 131.160207,22.2363134 131.160207,23.5842458 C131.160207,24.9321782 131.454274,25.9813968 132.116445,26.7308387 C132.777573,27.4792176 133.733811,27.7789944 134.834996,27.7789944 L134.909034,27.7789944 C136.084257,27.7789944 136.965414,27.4048049 137.626542,26.655363 C138.288714,25.9059211 138.58278,24.7833528 138.58278,23.4343574 Z M154.086969,28.0043585 C155.043206,27.9288827 155.703292,27.629106 156.21843,27.1805039 C156.879558,26.655363 157.173624,25.8315085 157.173624,24.8577655 L157.173624,24.5579887 L156.732525,24.5579887 C155.703292,24.5579887 154.822135,24.5579887 154.086969,24.6334644 C153.352845,24.7078771 152.764712,24.7833528 152.324655,25.0076539 C151.441413,25.233018 151.075394,25.7570958 151.075394,26.5054746 C151.075394,26.9551398 151.295422,27.3293292 151.662484,27.629106 C152.103584,27.8544701 152.764712,28.0043585 153.645869,28.0043585 L154.086969,28.0043585 Z M157.3217,28.603912 C156.732525,29.4267035 155.925406,29.9518444 154.822135,30.4004465 C154.602106,30.4769852 154.381035,30.5513979 154.086969,30.6258106 C153.206855,30.8511747 152.176579,31 151.001356,31 C149.310994,31 147.988738,30.6258106 147.106538,29.8763687 C146.151343,29.2034655 145.711286,28.1531838 145.711286,26.8052514 C145.711286,25.9813968 145.85832,25.233018 146.225381,24.5579887 C146.592443,23.9584352 147.106538,23.4343574 147.768709,22.9846923 C148.3558,22.6105028 149.089923,22.3851387 150.045118,22.2363134 C150.927318,22.086425 152.250617,22.0109493 154.086969,22.0109493 L154.676144,22.0109493 L157.173624,22.0109493 L157.173624,21.7866482 L157.173624,21.6367599 C157.173624,20.887318 156.953596,20.2888275 156.512496,19.913575 C156.072439,19.5393856 155.483263,19.3140215 154.676144,19.3140215 C154.455073,19.3140215 154.30804,19.3894972 154.086969,19.3894972 C153.42584,19.3894972 152.911745,19.5393856 152.544684,19.7647497 C152.103584,19.9890507 151.883555,20.4376528 151.735479,21.0372063 L146.518405,21.0372063 C146.739477,19.5393856 147.4736,18.4157542 148.796899,17.6663123 C150.045118,16.9923461 151.809517,16.6925694 154.086969,16.6181567 L154.74914,16.6181567 C157.247662,16.6181567 159.159095,17.0678218 160.333275,17.8916764 C161.509542,18.715531 162.17067,20.0634634 162.17067,21.8610609 L162.17067,28.828213 L162.17067,29.8763687 C162.243665,30.1017328 162.317703,30.4004465 162.391741,30.6258106 L157.614724,30.6258106 C157.467691,30.4004465 157.393653,30.1017328 157.393653,29.801956 C157.3217,29.5776549 157.3217,29.2034655 157.3217,28.9026257 L157.3217,28.603912 Z M193.695228,28.0043585 C194.576384,27.9288827 195.311551,27.629106 195.826688,27.1805039 C196.413779,26.655363 196.78084,25.8315085 196.78084,24.8577655 L196.78084,24.5579887 L196.340783,24.5579887 C195.311551,24.5579887 194.430394,24.5579887 193.695228,24.6334644 C192.887066,24.7078771 192.298933,24.7833528 191.858876,25.0076539 C191.050714,25.233018 190.608572,25.7570958 190.608572,26.5054746 C190.608572,26.9551398 190.829643,27.3293292 191.2697,27.629106 C191.7108,27.8544701 192.372971,28.0043585 193.181132,28.0043585 L193.695228,28.0043585 Z M196.854879,28.603912 C196.340783,29.4267035 195.531579,29.9518444 194.430394,30.4004465 C194.209323,30.4769852 193.916299,30.5513979 193.695228,30.6258106 C192.813028,30.8511747 191.784838,31 190.608572,31 C188.919253,31 187.595954,30.6258106 186.640759,29.8763687 C185.75856,29.2034655 185.244465,28.1531838 185.244465,26.8052514 C185.244465,25.9813968 185.464493,25.233018 185.832598,24.5579887 C186.199659,23.9584352 186.714797,23.4343574 187.374883,22.9846923 C187.888978,22.6105028 188.698182,22.3851387 189.653377,22.2363134 C190.535576,22.086425 191.858876,22.0109493 193.695228,22.0109493 L194.283361,22.0109493 L196.78084,22.0109493 L196.78084,21.7866482 L196.78084,21.6367599 C196.78084,20.887318 196.560812,20.2888275 196.120755,19.913575 C195.679655,19.5393856 195.091522,19.3140215 194.283361,19.3140215 C194.063332,19.3140215 193.841218,19.3894972 193.695228,19.3894972 C193.034099,19.3894972 192.520004,19.5393856 192.1519,19.7647497 C191.7108,19.9890507 191.416733,20.4376528 191.343738,21.0372063 L186.126664,21.0372063 C186.272655,19.5393856 187.081859,18.4157542 188.403073,17.6663123 C189.579339,16.9923461 191.343738,16.6925694 193.695228,16.6181567 L194.356356,16.6181567 C196.854879,16.6181567 198.765268,17.0678218 199.941534,17.8916764 C201.116758,18.715531 201.703848,20.0634634 201.703848,21.8610609 L201.703848,28.828213 C201.703848,29.2034655 201.778929,29.5776549 201.778929,29.8763687 C201.851924,30.1017328 201.924919,30.4004465 202,30.6258106 L197.22194,30.6258106 C197.074907,30.4004465 197.002955,30.1017328 196.928917,29.801956 C196.928917,29.5776549 196.854879,29.2034655 196.854879,28.9026257 L196.854879,28.603912 Z M174.443255,16.8424577 C175.104383,16.6925694 175.83955,16.6181567 176.573673,16.6181567 C178.705134,16.6181567 180.394452,17.2166472 181.643714,18.4901669 C182.81998,19.7647497 183.481108,21.4868715 183.481108,23.6597215 C183.481108,25.9813968 182.892975,27.7789944 181.643714,29.0525141 C180.46849,30.3260338 178.778129,31 176.646668,31 C175.912545,31 175.177378,30.8511747 174.443255,30.7012863 C174.074108,30.5513979 173.708089,30.4004465 173.339984,30.2516211 C172.384789,29.7275433 171.50259,29.0525141 170.768466,28.0787711 L170.768466,28.5284363 L170.768466,29.5776549 C170.768466,29.9518444 170.695471,30.3260338 170.621433,30.6258106 L165.477354,30.6258106 C165.550349,30.1017328 165.550349,29.5776549 165.62543,29.0525141 C165.62543,28.5284363 165.698425,28.0043585 165.698425,27.5546933 L165.698425,11 L170.768466,11 L170.768466,18.8643563 C171.57767,18.1149144 172.457784,17.5164239 173.412979,17.1422345 C173.782127,16.9923461 174.074108,16.9168704 174.443255,16.8424577 Z M178.189996,23.4343574 C178.189996,22.1619007 177.89593,21.1870947 177.234801,20.4376528 C176.573673,19.6892739 175.619521,19.3140215 174.51625,19.3140215 L174.443255,19.3140215 C173.266989,19.3894972 172.384789,19.6892739 171.722618,20.4376528 C171.063575,21.1870947 170.768466,22.2363134 170.768466,23.5842458 C170.768466,24.9321782 171.063575,25.9813968 171.722618,26.7308387 C172.384789,27.4792176 173.266989,27.7789944 174.443255,27.7789944 C175.619521,27.7789944 176.573673,27.4048049 177.234801,26.655363 C177.89593,25.9059211 178.189996,24.7833528 178.189996,23.4343574 Z M117.418332,30.6258106 L122.563454,30.6258106 L122.563454,16.9168704 L117.418332,16.9168704 L117.418332,30.6258106 Z M117.273385,14.8205592 L122.783482,14.8205592 L122.783482,11 L117.273385,11 L117.273385,14.8205592 Z" id="Fill-6" fill="#FEFEFE"></path>
        </g>
    </g>
</svg>