<?xml version="1.0" encoding="UTF-8"?>
<svg width="146px" height="44px" viewBox="0 0 146 44" version="1.1" xmlns="http://www.w3.org/2000/svg" xmlns:xlink="http://www.w3.org/1999/xlink">
    <!-- Generator: Sketch 48.2 (47327) - http://www.bohemiancoding.com/sketch -->
    <title>amazon</title>
    <desc>Created with Sketch.</desc>
    <defs>
        <polygon id="path-1" points="0.0218927855 0.0355345508 70.5519606 0.0355345508 70.5519606 15.9725714 0.0218927855 15.9725714"></polygon>
        <polygon id="path-3" points="0.0273033708 0.227724138 80.6755474 0.227724138 80.6755474 25.6167241 0.0273033708 25.6167241"></polygon>
    </defs>
    <g id="Artboard-Copy-22" stroke="none" stroke-width="1" fill="none" fill-rule="evenodd" transform="translate(-395.000000, -3176.000000)">
        <g id="amazon" transform="translate(395.000000, 3176.000000)">
            <g id="amazon-logo-rgb">
                <g id="Group-3" transform="translate(20.000000, 28.000000)">
                    <mask id="mask-2" fill="white">
                        <use xlink:href="#path-1"></use>
                    </mask>
                    <g id="Clip-2"></g>
                    <path d="M69.9286282,6.38628571 C61.4609679,12.6624 49.1857051,16 38.6148974,16 C23.8004744,16 10.4593013,10.4996571 0.364102564,1.34354286 C-0.428275641,0.624457143 0.278538462,-0.357028571 1.23157692,0.199314286 C12.12325,6.56548571 25.5927692,10.3995429 39.5046731,10.3995429 C48.8889615,10.3995429 59.2048974,8.44342857 68.6975064,4.39908571 C70.1288846,3.78925714 71.3290577,5.34628571 69.9286282,6.38628571" id="Fill-1" fill="#FFFFFF" mask="url(#mask-2)"></path>
                </g>
                <path d="M93.2253679,29.748366 C92.1794021,28.3892131 86.3127643,29.1044863 83.6767546,29.4248644 C82.8786563,29.522138 82.7551621,28.813558 83.4741537,28.3008637 C88.1550705,24.9632199 95.8235822,25.9265853 96.7144111,27.044339 C97.6122717,28.1714631 96.4784095,35.9778908 92.0932637,39.7028441 C91.4182202,40.2757766 90.7761378,39.9701233 91.0758642,39.213799 C92.0629395,36.7110123 94.2726522,31.1088574 93.2253679,29.748366" id="Fill-4" fill="#FFFFFF"></path>
                <path d="M83.8545585,5.28131775 L83.8545585,1.8660376 C83.857778,1.34585115 84.2404436,1 84.7022179,1.00140972 L99.6845871,1 C100.163839,1 100.548344,1.35571919 100.548344,1.86180845 L100.548344,4.79073541 C100.543745,5.28225757 100.138543,5.92274007 99.4205846,6.94055746 L91.6596484,18.2615439 C94.5397588,18.1924676 97.5872854,18.6341797 100.205233,20.1369406 C100.795329,20.4757431 100.953547,20.9771333 101,21.4695953 L101,25.1141898 C101,25.61558 100.461417,26.1973242 99.896157,25.8942345 C95.2853128,23.4262858 89.1658831,23.1570294 84.0661284,25.9247784 C83.5450225,26.208132 83,25.635316 83,25.1325161 L83,21.6688356 C83,21.1138761 83.0105785,20.1665447 83.5579007,19.3216529 L92.5491619,6.14218639 L84.7206153,6.14124657 C84.2418234,6.14124657 83.857778,5.79304589 83.8545585,5.28131775" id="Fill-5" fill="#FFFFFF"></path>
                <path d="M30.4254413,26 L25.8233594,26 C25.3854418,25.9724938 25.0357579,25.6532412 25,25.2447062 L25.0037151,2.30947657 C25.0037151,1.8504383 25.4007666,1.48428989 25.8920887,1.48428989 L30.1779227,1.48293712 C30.6260568,1.50503229 30.9859572,1.83465604 31.0138205,2.25356228 L31.0138205,5.24768226 L31.100661,5.24768226 C32.2175134,2.35186321 34.3225827,1 37.1572052,1 C40.03548,1 41.8400906,2.35186321 43.1287664,5.24768226 C44.2460832,2.35186321 46.7807111,1 49.4871625,1 C51.4204085,1 53.5250135,1.77242884 54.8136893,3.50983009 C56.2741885,5.44112766 55.9746585,8.23954764 55.9746585,10.7011291 L55.9700146,25.1748133 C55.9700146,25.6324988 55.5734275,26 55.0821054,26 L50.4860605,26 C50.0235303,25.9715919 49.6603792,25.6167166 49.6603792,25.176617 L49.658986,13.0170629 C49.658986,12.0534432 49.7448977,9.63965946 49.5294218,8.72293568 C49.1862393,7.17762707 48.1552987,6.74293857 46.8238992,6.74293857 C45.7065824,6.74293857 44.546542,7.46711879 44.0733309,8.62508568 C43.601513,9.7839544 43.6442367,11.7138992 43.6442367,13.0170629 L43.6442367,25.1748133 C43.6442367,25.6324988 43.2471852,26 42.7567919,26 L38.1602826,26 C37.6977524,25.9715919 37.3336725,25.6167166 37.3336725,25.176617 L37.3290286,13.0170629 C37.3290286,10.4594351 37.7585872,6.69604271 34.4944062,6.69604271 C31.1856439,6.69604271 31.3152081,10.3629378 31.3152081,13.0170629 L31.3133506,25.1748133 C31.3133506,25.6324988 30.9158347,26 30.4254413,26" id="Fill-6" fill="#FFFFFF"></path>
                <path d="M113.958183,5.59347076 C110.707594,5.59347076 110.502069,9.99539945 110.502069,12.7420154 C110.502069,15.488189 110.461142,21.3587543 113.918146,21.3587543 C117.334668,21.3587543 117.498376,16.6241706 117.498376,13.7373264 C117.498376,11.8435814 117.416077,9.57029107 116.839094,7.77121118 C116.345745,6.2079094 115.357267,5.59347076 113.958183,5.59347076 Z M113.918146,1 C120.461586,1 124,6.58789702 124,13.6895514 C124,20.5536583 120.091463,26 113.918146,26 C107.497931,26 104,20.4116606 104,13.4524463 C104,6.4450146 107.538858,1 113.918146,1 Z" id="Fill-7" fill="#FFFFFF"></path>
                <path d="M132.447043,26 L127.837899,26 C127.374837,25.9715919 127.007936,25.6167166 127.007936,25.176617 L127,2.23281988 C127.039211,1.8130118 127.422917,1.48428989 127.88878,1.48428989 L132.179569,1.48293712 C132.583814,1.50367952 132.917107,1.76927239 133.002064,2.1250496 L133.002064,5.6332203 L133.088888,5.6332203 C134.38518,2.4952563 136.197283,1 139.392969,1 C141.465543,1 143.495639,1.7237293 144.790998,3.7032755 C146,5.53672306 146,8.62508568 146,10.845875 L146,25.2785253 C145.948652,25.6843548 145.570548,26 145.113554,26 L140.476402,26 C140.047883,25.9738465 139.702454,25.6694744 139.652974,25.2785253 L139.652974,12.8258721 C139.652974,10.3155911 139.955458,6.64689225 136.759772,6.64689225 C135.636661,6.64689225 134.600373,7.37107247 134.08223,8.48079074 C133.434317,9.88090256 133.347493,11.2796616 133.347493,12.8258721 L133.347493,25.1748133 C133.339557,25.6324988 132.93998,26 132.447043,26" id="Fill-8" fill="#FFFFFF"></path>
                <g id="Group-12">
                    <mask id="mask-4" fill="white">
                        <use xlink:href="#path-3"></use>
                    </mask>
                    <g id="Clip-10"></g>
                    <path d="M76.9522753,25.2442069 C76.6546685,25.5082414 76.2241854,25.5257241 75.8878989,25.3477586 C74.390309,24.1217241 74.1218258,23.5551034 73.3022697,22.3873448 C70.8272191,24.8712414 69.0743427,25.6167241 65.8675618,25.6167241 C62.0710281,25.6167241 59.1177135,23.3081034 59.1177135,18.6926552 C59.1177135,15.0862759 61.1008483,12.6342069 63.9267472,11.431931 C66.3731292,10.374 69.7910562,10.1816897 72.4071742,9.89210345 L72.4071742,9.31562069 C72.4071742,8.25724138 72.4913596,7.00834483 71.8583764,6.09431034 C71.3091236,5.2762069 70.2552135,4.94 69.3268989,4.94 C67.6067865,4.94 66.0782528,5.80786207 65.7019213,7.60724138 C65.6236517,8.00755172 65.3274101,8.40427586 64.9192247,8.42489655 L60.5479551,7.95824138 C60.1784494,7.87575862 59.7688989,7.58437931 59.8744719,7.02896552 C60.8801461,1.8052069 65.6687022,0.227724138 69.959427,0.227724138 C72.1541629,0.227724138 75.021927,0.803758621 76.7515955,2.43951724 C78.9458764,4.459 78.7342753,7.15224138 78.7342753,10.0862069 L78.7342753,17.0057931 C78.7342753,19.088931 79.6125337,20.0016207 80.4366404,21.1227586 C80.7251461,21.528 80.789309,22.0081034 80.4216236,22.3039655 C79.5010449,23.0646897 77.8642079,24.4646552 76.9641067,25.2545172 L76.9522753,25.2442069 Z M72.4071742,14.4125172 C72.4071742,16.1446552 72.4485843,17.5858621 71.5625899,19.1256897 C70.8458764,20.3750345 69.7059607,21.1451724 68.4409045,21.1451724 C66.711691,21.1451724 65.699191,19.846069 65.699191,17.9225172 C65.699191,14.139069 69.1444213,13.4514138 72.4071742,13.4514138 L72.4071742,14.4125172 Z" id="Fill-9" fill="#FFFFFF" mask="url(#mask-4)"></path>
                    <path d="M17.8350169,25.2442069 C17.5374101,25.5082414 17.1060169,25.5257241 16.7697303,25.3477586 C15.2712303,24.1217241 15.0027472,23.5551034 14.1850112,22.3873448 C11.7085955,24.8712414 9.9557191,25.6167241 6.74984831,25.6167241 C2.95285955,25.6167241 0,23.3081034 0,18.6926552 C0,15.0862759 1.98222472,12.6342069 4.80903371,11.431931 C7.25541573,10.374 10.6733427,10.1816897 13.2880955,9.89210345 L13.2880955,9.31562069 C13.2880955,8.25724138 13.373191,7.00834483 12.7406629,6.09431034 C12.1914101,5.2762069 11.1365899,4.94 10.2091854,4.94 C8.48907303,4.94 6.95917416,5.80786207 6.58466292,7.60724138 C6.50639326,8.00755172 6.20969663,8.40427586 5.80105618,8.42489655 L1.43024157,7.95824138 C1.06073596,7.87575862 0.650275281,7.58437931 0.756758427,7.02896552 C1.76106742,1.8052069 6.5496236,0.227724138 10.8417135,0.227724138 C13.0355393,0.227724138 15.9042135,0.803758621 17.633882,2.43951724 C19.8272528,4.459 19.6170169,7.15224138 19.6170169,10.0862069 L19.6170169,17.0057931 C19.6170169,19.088931 20.4943652,20.0016207 21.3184719,21.1227586 C21.6056124,21.528 21.6715955,22.0081034 21.3043652,22.3039655 C20.3828764,23.0646897 18.7455843,24.4646552 17.8454831,25.2545172 L17.8350169,25.2442069 Z M13.2880955,14.4125172 C13.2880955,16.1446552 13.3304157,17.5858621 12.4448764,19.1256897 C11.7281629,20.3750345 10.5887022,21.1451724 9.32273596,21.1451724 C7.59397753,21.1451724 6.58056742,19.846069 6.58056742,17.9225172 C6.58056742,14.139069 10.0267079,13.4514138 13.2880955,13.4514138 L13.2880955,14.4125172 Z" id="Fill-11" fill="#FFFFFF" mask="url(#mask-4)"></path>
                </g>
            </g>
        </g>
    </g>
</svg>