<svg width="93px" height="118px" viewBox="0 0 93 85" version="1.1" xmlns="http://www.w3.org/2000/svg" xmlns:xlink="http://www.w3.org/1999/xlink" style="vector-effect:non-scaling-stroke;">
  <style><![CDATA[ * { vector-effect: inherit; } ]]></style>
    <!-- Generator: Sketch 48.2 (47327) - http://www.bohemiancoding.com/sketch -->
    <title>Blockchain</title>
    <desc>Created with Sketch.</desc>
    <defs>
        <rect id="path-1" x="6" y="6" width="64" height="64"></rect>
        <mask id="mask-2" maskContentUnits="userSpaceOnUse" maskUnits="objectBoundingBox" x="0" y="0" width="64" height="64" fill="white">
            <use xlink:href="#path-1"></use>
        </mask>
        <circle id="path-3" cx="69" cy="7" r="7"></circle>
        <circle id="path-4" cx="38" cy="7" r="7"></circle>
        <circle id="path-5" cx="38" cy="38" r="7"></circle>
        <circle id="path-6" cx="69" cy="69" r="7"></circle>
        <circle id="path-7" cx="38" cy="69" r="7"></circle>
        <circle id="path-8" cx="69" cy="38" r="7"></circle>
        <circle id="path-9" cx="7" cy="7" r="7"></circle>
        <circle id="path-10" cx="7" cy="69" r="7"></circle>
        <circle id="path-11" cx="7" cy="38" r="7"></circle>
    </defs>
    <g id="Symbols" stroke="none" stroke-width="1" fill="none" fill-rule="evenodd">
        <g id="Blockchain">
            <path d="M0.981484983,117 L0.981484983,104.13 L5.58948498,104.13 C8.23548498,104.13 9.80148498,105.138 9.80148498,107.478 L9.80148498,107.55 C9.80148498,108.828 9.22548498,109.836 7.76748498,110.286 C9.51348498,110.664 10.341485,111.618 10.341485,113.328 L10.341485,113.4 C10.341485,115.794 8.75748498,117 5.93148498,117 L0.981484983,117 Z M3.32148498,115.29 L5.64348498,115.29 C7.24548498,115.29 7.98348498,114.57 7.98348498,113.238 L7.98348498,113.166 C7.98348498,111.834 7.24548498,111.168 5.48148498,111.168 L3.32148498,111.168 L3.32148498,115.29 Z M3.32148498,109.548 L5.30148498,109.548 C6.88548498,109.548 7.49748498,108.972 7.49748498,107.658 L7.49748498,107.586 C7.49748498,106.362 6.79548498,105.84 5.26548498,105.84 L3.32148498,105.84 L3.32148498,109.548 Z M12.465485,117 L12.465485,103.23 L14.643485,103.23 L14.643485,117 L12.465485,117 Z M21.501485,115.488 C23.121485,115.488 24.093485,114.282 24.093485,112.356 L24.093485,112.23 C24.093485,110.286 23.121485,109.098 21.501485,109.098 C19.881485,109.098 18.891485,110.268 18.891485,112.212 L18.891485,112.356 C18.891485,114.282 19.845485,115.488 21.501485,115.488 Z M21.483485,117.18 C18.711485,117.18 16.659485,115.254 16.659485,112.392 L16.659485,112.248 C16.659485,109.332 18.729485,107.388 21.501485,107.388 C24.255485,107.388 26.325485,109.314 26.325485,112.194 L26.325485,112.338 C26.325485,115.272 24.255485,117.18 21.483485,117.18 Z M32.409485,117.18 C29.709485,117.18 27.657485,115.416 27.657485,112.41 L27.657485,112.266 C27.657485,109.278 29.781485,107.388 32.409485,107.388 C34.497485,107.388 36.459485,108.324 36.711485,110.916 L34.605485,110.916 C34.425485,109.656 33.597485,109.134 32.445485,109.134 C30.951485,109.134 29.889485,110.286 29.889485,112.23 L29.889485,112.374 C29.889485,114.426 30.897485,115.506 32.499485,115.506 C33.651485,115.506 34.641485,114.822 34.767485,113.49 L36.765485,113.49 C36.603485,115.65 34.965485,117.18 32.409485,117.18 Z M38.637485,117 L38.637485,103.23 L40.815485,103.23 L40.815485,111.726 L44.181485,107.586 L46.557485,107.586 L42.903485,111.906 L46.863485,117 L44.343485,117 L40.815485,112.374 L40.815485,117 L38.637485,117 Z M52.479485,117.18 C49.779485,117.18 47.727485,115.416 47.727485,112.41 L47.727485,112.266 C47.727485,109.278 49.851485,107.388 52.479485,107.388 C54.567485,107.388 56.529485,108.324 56.781485,110.916 L54.675485,110.916 C54.495485,109.656 53.667485,109.134 52.515485,109.134 C51.021485,109.134 49.959485,110.286 49.959485,112.23 L49.959485,112.374 C49.959485,114.426 50.967485,115.506 52.569485,115.506 C53.721485,115.506 54.711485,114.822 54.837485,113.49 L56.835485,113.49 C56.673485,115.65 55.035485,117.18 52.479485,117.18 Z M58.707485,117 L58.707485,103.23 L60.885485,103.23 L60.885485,109.08 C61.335485,108.162 62.379485,107.388 63.927485,107.388 C65.817485,107.388 67.149485,108.486 67.149485,111.078 L67.149485,117 L64.971485,117 L64.971485,111.276 C64.971485,109.854 64.395485,109.206 63.099485,109.206 C61.875485,109.206 60.885485,109.962 60.885485,111.456 L60.885485,117 L58.707485,117 Z M72.117485,117.18 C70.389485,117.18 68.967485,116.352 68.967485,114.39 C68.967485,112.194 71.091485,111.402 73.791485,111.402 L74.961485,111.402 L74.961485,110.916 C74.961485,109.656 74.529485,109.026 73.251485,109.026 C72.117485,109.026 71.559485,109.566 71.451485,110.502 L69.345485,110.502 C69.525485,108.306 71.271485,107.388 73.377485,107.388 C75.483485,107.388 77.139485,108.252 77.139485,110.826 L77.139485,117 L74.997485,117 L74.997485,115.848 C74.385485,116.658 73.557485,117.18 72.117485,117.18 Z M72.639485,115.614 C73.971485,115.614 74.961485,114.912 74.961485,113.706 L74.961485,112.77 L73.845485,112.77 C72.189485,112.77 71.127485,113.148 71.127485,114.3 C71.127485,115.092 71.559485,115.614 72.639485,115.614 Z M79.695485,117 L79.695485,107.586 L81.873485,107.586 L81.873485,117 L79.695485,117 Z M80.757485,106.038 C80.037485,106.038 79.461485,105.498 79.461485,104.796 C79.461485,104.076 80.037485,103.536 80.757485,103.536 C81.477485,103.536 82.053485,104.076 82.053485,104.796 C82.053485,105.498 81.477485,106.038 80.757485,106.038 Z M84.519485,117 L84.519485,107.586 L86.697485,107.586 L86.697485,109.08 C87.147485,108.162 88.191485,107.388 89.739485,107.388 C91.629485,107.388 92.961485,108.486 92.961485,111.078 L92.961485,117 L90.783485,117 L90.783485,111.276 C90.783485,109.854 90.207485,109.206 88.911485,109.206 C87.687485,109.206 86.697485,109.962 86.697485,111.456 L86.697485,117 L84.519485,117 Z" fill="#FFFFFF"></path>
            <g id="Group-11-Copy" transform="translate(8.000000, 0.000000)">
                <path d="M38,3 L38,73" id="Path-2" stroke="#FF2F2F" stroke-width="2" stroke-dasharray="2,2"></path>
                <path d="M73,38 L3,38" id="Path-2" stroke="#FF2F2F" stroke-width="2" stroke-dasharray="2,2"></path>
                <use id="Rectangle-3" stroke="#FF2F2F" mask="url(#mask-2)" stroke-width="4" stroke-dasharray="2,2" xlink:href="#path-1"></use>
                <g id="Oval-Copy-2">
                    <use fill="#3D3D45" fill-rule="evenodd" xlink:href="#path-3"></use>
                    <circle stroke="#FFFFFF" stroke-width="2" cx="69" cy="7" r="6"></circle>
                </g>
                <g id="Oval-Copy-8">
                    <use fill="#3D3D45" fill-rule="evenodd" xlink:href="#path-4"></use>
                    <circle stroke="#FFFFFF" stroke-width="2" cx="38" cy="7" r="6"></circle>
                </g>
                <g id="Oval-Copy-10">
                    <use fill="#3D3D45" fill-rule="evenodd" xlink:href="#path-5"></use>
                    <circle stroke="#FFFFFF" stroke-width="2" cx="38" cy="38" r="6"></circle>
                </g>
                <g id="Oval-Copy-4">
                    <use fill="#3D3D45" fill-rule="evenodd" xlink:href="#path-6"></use>
                    <circle stroke="#FFFFFF" stroke-width="2" cx="69" cy="69" r="6"></circle>
                </g>
                <g id="Oval-Copy-9">
                    <use fill="#3D3D45" fill-rule="evenodd" xlink:href="#path-7"></use>
                    <circle stroke="#FFFFFF" stroke-width="2" cx="38" cy="69" r="6"></circle>
                </g>
                <g id="Oval-Copy-6">
                    <use fill="#3D3D45" fill-rule="evenodd" xlink:href="#path-8"></use>
                    <circle stroke="#FFFFFF" stroke-width="2" cx="69" cy="38" r="6"></circle>
                </g>
                <g id="Oval-Copy-3">
                    <use fill="#3D3D45" fill-rule="evenodd" xlink:href="#path-9"></use>
                    <circle stroke="#FFFFFF" stroke-width="2" cx="7" cy="7" r="6"></circle>
                </g>
                <g id="Oval-Copy-5">
                    <use fill="#3D3D45" fill-rule="evenodd" xlink:href="#path-10"></use>
                    <circle stroke="#FFFFFF" stroke-width="2" cx="7" cy="69" r="6"></circle>
                </g>
                <g id="Oval-Copy-7">
                    <use fill="#3D3D45" fill-rule="evenodd" xlink:href="#path-11"></use>
                    <circle stroke="#FFFFFF" stroke-width="2" cx="7" cy="38" r="6"></circle>
                </g>
            </g>
        </g>
    </g>
</svg>