<?xml version="1.0" encoding="UTF-8"?>
<svg width="179px" height="63px" viewBox="0 0 179 63" version="1.1" xmlns="http://www.w3.org/2000/svg" xmlns:xlink="http://www.w3.org/1999/xlink">
    <!-- Generator: Sketch 48.2 (47327) - http://www.bohemiancoding.com/sketch -->
    <title>comcast</title>
    <desc>Created with Sketch.</desc>
    <defs>
        <polygon id="path-1" points="0 0.38958 23.6193937 0.38958 23.6193937 26.92878 0 26.92878"></polygon>
        <polygon id="path-3" points="0 63 180 63 180 0 0 0"></polygon>
    </defs>
    <g id="Artboard-Copy-22" stroke="none" stroke-width="1" fill="none" fill-rule="evenodd" transform="translate(-851.000000, -3128.000000)">
        <g id="comcast" transform="translate(851.000000, 3128.000000)">
            <g id="Page-1">
                <path d="M103.213954,36 C96.0092298,36 90,41.8040333 90,49.0658347 C90,55.90794 95.6646639,62 103.269084,62 C108.568808,62 111.922782,58.9069452 112.999626,57.7413185 L111.167734,55.9761259 C110.549912,56.6997197 107.875481,59.4788841 103.269084,59.4788841 C97.0585079,59.4788841 92.5701622,54.5506873 92.5701622,49.0658347 C92.5701622,43.1624616 97.4108641,38.5217037 103.213954,38.5217037 C108.161321,38.5217037 110.736277,41.5336408 110.736277,41.5336408 C111.197696,42.0626696 112.009673,42.1255652 112.548994,41.6729517 C113.089513,41.2203382 113.153033,40.423856 112.691614,39.8948273 C112.691614,39.8948273 109.25794,36 103.213954,36" id="Fill-1" fill="#FFFFFF"></path>
                <g id="Group-5" transform="translate(0.000000, 36.000000)">
                    <mask id="mask-2" fill="white">
                        <use xlink:href="#path-1"></use>
                    </mask>
                    <g id="Clip-4"></g>
                    <path d="M13.5697231,0.38958 C6.17095385,0.38958 -0.000123076923,6.31398 -0.000123076923,13.72638 C-0.000123076923,20.71038 5.81710769,26.92878 13.6263385,26.92878 C19.0688,26.92878 22.5137231,23.77158 23.6189538,22.58178 L21.7377231,20.77998 C21.1032615,21.51858 18.3568,24.35538 13.6263385,24.35538 C7.24849231,24.35538 2.63926154,19.32498 2.63926154,13.72638 C2.63926154,7.70058 7.61033846,2.96358 13.5697231,2.96358 C18.6503385,2.96358 21.2952615,6.03798 21.2952615,6.03798 C21.7691077,6.57798 22.6023385,6.64218 23.1568,6.18018 C23.7112615,5.71818 23.7764923,4.90518 23.3026462,4.36518 C23.3026462,4.36518 19.7764923,0.38958 13.5697231,0.38958" id="Fill-3" fill="#FFFFFF" mask="url(#mask-2)"></path>
                </g>
                <path d="M40.0047033,38.5202043 C46.114915,38.5202043 50.478428,43.6499277 50.478428,49.0199783 C50.478428,53.8482643 46.7463368,59.4792081 40.1034732,59.4792081 C34.3636487,59.4792081 29.521572,55.0510758 29.521572,49.1098807 C29.521572,42.4300759 34.8557344,38.5202043 40.0047033,38.5202043 M40.0047033,36 C33.5540883,36 27,41.073314 27,49.1098807 C27,56.4301663 33.0484805,62 40.1034732,62 C48.1726212,62 53,55.158606 53,49.0199783 C53,42.2843518 47.5235619,36 40.0047033,36" id="Fill-6" fill="#FFFFFF"></path>
                <path d="M80.1454069,36.0001052 C79.649827,36.0080085 79.2069431,36.3192797 79.0210266,36.7916579 L71.3836484,56.0132577 L63.7557436,36.7965215 C63.4969999,36.1490533 62.7770176,35.839606 62.146441,36.1052808 C61.7598057,36.2682117 61.4797468,36.6208236 61.4021829,37.0427418 L57.0260404,61.4750932 C56.8874912,62.1602544 57.3155728,62.8308248 57.982859,62.9730854 C58.6501453,63.115954 59.3032213,62.6757972 59.4417706,61.990636 C59.4459152,61.9711815 59.4488756,61.9517271 59.4524282,61.9316647 L63.06655,41.7689561 L70.2409133,59.850039 C70.4978807,60.4987232 71.2172709,60.8106023 71.8484396,60.5467514 C72.1569189,60.4178657 72.4014523,60.1667817 72.5263835,59.850039 L79.7102202,41.7507176 L83.4877591,62.7791489 L86,62.7791489 L81.3745873,37.0384862 C81.2662347,36.4305348 80.7469711,35.9922018 80.1454069,36.0001052" id="Fill-8" fill="#FFFFFF"></path>
                <path d="M128.207857,36.0002486 C127.702757,36.0093617 127.251081,36.3179918 127.058633,36.7864048 L117.094442,61.2532368 C116.82975,61.9014815 117.140581,62.6408571 117.78774,62.9051368 C118.434292,63.1706316 119.17373,62.8595713 119.438421,62.2125417 L128.230926,40.616334 L137.26566,62.7982098 L140,62.7982098 L129.40322,36.7864048 C129.205308,36.3021958 128.729955,35.9899204 128.207857,36.0002486" id="Fill-10" fill="#FFFFFF"></path>
                <mask id="mask-4" fill="white">
                    <use xlink:href="#path-3"></use>
                </mask>
                <g id="Clip-13"></g>
                <polygon id="Fill-12" fill="#FFFFFF" mask="url(#mask-4)" points="122 53 133 53 133 51 122 51"></polygon>
                <path d="M151.280207,36 C149.455744,36 147.629499,36.4541896 146.177655,37.5090625 C144.724622,38.5639355 143.714928,40.3012694 143.714928,42.4257235 C143.714928,44.2766049 144.410838,45.7897857 145.585745,46.8464236 C146.760651,47.9024732 148.271924,48.616704 150.159975,49.5815627 C150.165918,49.5845043 150.172455,49.587446 150.178398,49.5903876 C152.096163,50.5275949 153.786317,51.2853619 154.866731,52.1178467 C155.94774,52.9509198 156.451101,53.6804471 156.451101,55.1147919 C156.451101,56.5103071 155.907923,57.5228204 155.021246,58.2735275 C154.135163,59.0248229 152.865765,59.4766592 151.484641,59.4766592 C148.208335,59.4766592 145.750362,57.3733849 144.884485,56.5161903 L143,58.2199896 C144.073283,59.3178105 147.133863,62 151.484641,62 C153.419047,62 155.274412,61.3828434 156.678713,60.1932433 C158.08242,59.0048198 159,57.208653 159,55.1147919 C159,52.9403299 157.899974,51.2612405 156.432678,50.1316498 C154.970137,49.0044125 153.175389,48.2413504 151.325372,47.3376779 C151.318835,47.3347363 151.314081,47.3317946 151.306949,47.3282647 C149.41355,46.361641 148.052037,45.6556468 147.301452,44.9808341 C146.547896,44.3024913 146.263826,43.7653475 146.263826,42.4257235 C146.263826,41.0302084 146.797497,40.1883104 147.688928,39.5417374 C148.57917,38.8951644 149.895517,38.5233408 151.280207,38.5233408 C153.737585,38.5233408 155.814025,39.8529631 155.814025,39.8529631 C156.379193,40.2671464 157.177915,40.1494807 157.596887,39.589392 C158.015266,39.028715 157.896408,38.2391782 157.330647,37.8244066 C157.297961,37.8008734 157.263492,37.7779286 157.229024,37.7573371 C157.229024,37.7573371 154.64625,36 151.280207,36" id="Fill-14" fill="#FFFFFF" mask="url(#mask-4)"></path>
                <path d="M163.270976,37.0001051 C162.578851,36.9921796 162.009485,37.433674 162.000132,37.9856585 C161.990194,38.5381092 162.543777,38.9917249 163.235318,38.9996503 C163.247594,39.0001166 163.259285,39.0001166 163.270976,38.9996503 L177.728439,38.9996503 C178.420564,39.0075758 178.990515,38.5660814 178.999868,38.0140969 C179.009806,37.4616462 178.456807,37.0080305 177.764098,37.0001051 L177.728439,37.0001051 L163.270976,37.0001051 Z" id="Fill-15" fill="#FFFFFF" mask="url(#mask-4)"></path>
                <polygon id="Fill-16" fill="#FFFFFF" mask="url(#mask-4)" points="170 38 170 39.2315451 170 61.7684549 170 63 172 63 172 61.7684549 172 39.2315451 172 38"></polygon>
                <path d="M71.5728726,8.31201867 C69.6821194,10.073979 68.9938734,14.0655578 72.4019634,16.3983542 L86,26 L79.4069229,10.4543329 C78.0251049,6.78571902 74.2459656,5.98532749 71.5728726,8.31201867" id="Fill-17" fill="#FFFFFF" mask="url(#mask-4)"></path>
                <path d="M83.5813181,0.0266972941 C81.2896812,0.0721676573 77.8482378,2.72739755 79.3802907,6.78084111 L86.4503125,23 L88.9339928,5.94023769 C89.508896,1.70132291 86.2116386,-0.255697593 83.5813181,0.0266972941" id="Fill-18" fill="#FFFFFF" mask="url(#mask-4)"></path>
                <path d="M90.0047239,5.31807792 L91.3384023,5.31807792 C91.3384023,5.31807792 92.0508399,5.31807792 92.1475454,5.64485714 C91.6230101,6.06244156 90.1944624,6.11441558 90.3835889,8.34332468 L92.6255641,23 L99.629977,6.762 C101.062809,3.13636364 98.055147,0.10812987 95.3884023,0.0155324675 C95.26293,0.00657142857 95.1386818,0 95.0095372,0 C92.6145471,0 89.8706828,1.69423377 90.0047239,5.31807792" id="Fill-19" fill="#FFFFFF" mask="url(#mask-4)"></path>
                <path d="M99.4596652,10.5692474 L93,26 L106.708288,16.3037192 C109.868296,14.0053915 109.358637,10.3306433 107.589748,8.51443081 C106.847937,7.65999513 105.486657,7.0000003 104.04481,7.0000003 C102.340375,6.99938693 100.516582,7.92620122 99.4596652,10.5692474" id="Fill-20" fill="#FFFFFF" mask="url(#mask-4)"></path>
                <path d="M104.568453,16.9023785 L92,26 L107.475184,26 C110.649925,26 112.690288,22.6077589 111.783719,19.4945228 C111.176621,17.5378563 109.37863,16.0024209 107.292822,16 C106.414801,16 105.483762,16.2741633 104.568453,16.9023785" id="Fill-21" fill="#FFFFFF" mask="url(#mask-4)"></path>
                <path d="M71.8621487,26 L87,26 L74.5184601,16.9443763 C71.6348119,15.0190321 68.3925154,16.1461657 67.2217022,19.3396104 C66.2296347,22.9969209 68.7072004,26 71.8621487,26" id="Fill-22" fill="#FFFFFF" mask="url(#mask-4)"></path>
            </g>
        </g>
    </g>
</svg>