<svg width="95px" height="116px" viewBox="0 0 95 85" version="1.1" xmlns="http://www.w3.org/2000/svg" xmlns:xlink="http://www.w3.org/1999/xlink" style="vector-effect:non-scaling-stroke;">
  <style><![CDATA[ * { vector-effect: inherit; } ]]></style>
    <!-- Generator: Sketch 48.2 (47327) - http://www.bohemiancoding.com/sketch -->
    <title>Commerce</title>
    <desc>Created with Sketch.</desc>
    <defs>
        <circle id="path-1" cx="17" cy="57" r="8"></circle>
        <mask id="mask-2" maskContentUnits="userSpaceOnUse" maskUnits="objectBoundingBox" x="0" y="0" width="16" height="16" fill="white">
            <use xlink:href="#path-1"></use>
        </mask>
        <circle id="path-3" cx="57" cy="17" r="8"></circle>
        <mask id="mask-4" maskContentUnits="userSpaceOnUse" maskUnits="objectBoundingBox" x="0" y="0" width="16" height="16" fill="white">
            <use xlink:href="#path-3"></use>
        </mask>
    </defs>
    <g id="Symbols" stroke="none" stroke-width="1" fill="none" fill-rule="evenodd">
        <g id="Commerce">
            <path d="M6.62265851,115.18 C2.59065851,115.18 0.340658509,112.606 0.340658509,108.646 L0.340658509,108.502 C0.340658509,104.632 3.00465851,101.932 6.58665851,101.932 C9.53865851,101.932 11.8246585,103.408 12.1126585,106.432 L9.68265851,106.432 C9.41265851,104.722 8.45865851,103.84 6.60465851,103.84 C4.33665851,103.84 2.86065851,105.604 2.86065851,108.484 L2.86065851,108.628 C2.86065851,111.526 4.24665851,113.236 6.62265851,113.236 C8.40465851,113.236 9.66465851,112.336 9.91665851,110.518 L12.2566585,110.518 C11.8786585,113.614 9.68265851,115.18 6.62265851,115.18 Z M18.3586585,113.488 C19.9786585,113.488 20.9506585,112.282 20.9506585,110.356 L20.9506585,110.23 C20.9506585,108.286 19.9786585,107.098 18.3586585,107.098 C16.7386585,107.098 15.7486585,108.268 15.7486585,110.212 L15.7486585,110.356 C15.7486585,112.282 16.7026585,113.488 18.3586585,113.488 Z M18.3406585,115.18 C15.5686585,115.18 13.5166585,113.254 13.5166585,110.392 L13.5166585,110.248 C13.5166585,107.332 15.5866585,105.388 18.3586585,105.388 C21.1126585,105.388 23.1826585,107.314 23.1826585,110.194 L23.1826585,110.338 C23.1826585,113.272 21.1126585,115.18 18.3406585,115.18 Z M25.1446585,115 L25.1446585,105.586 L27.3226585,105.586 L27.3226585,107.026 C27.7726585,106.144 28.7986585,105.388 30.1846585,105.388 C31.4086585,105.388 32.3806585,105.91 32.8486585,107.08 C33.5686585,105.91 34.8646585,105.388 36.0346585,105.388 C37.7626585,105.388 39.1666585,106.45 39.1666585,109.042 L39.1666585,115 L36.9886585,115 L36.9886585,109.186 C36.9886585,107.8 36.3946585,107.206 35.3146585,107.206 C34.2346585,107.206 33.2446585,107.926 33.2446585,109.366 L33.2446585,115 L31.0666585,115 L31.0666585,109.186 C31.0666585,107.8 30.4546585,107.206 29.3926585,107.206 C28.3126585,107.206 27.3226585,107.926 27.3226585,109.366 L27.3226585,115 L25.1446585,115 Z M41.6686585,115 L41.6686585,105.586 L43.8466585,105.586 L43.8466585,107.026 C44.2966585,106.144 45.3226585,105.388 46.7086585,105.388 C47.9326585,105.388 48.9046585,105.91 49.3726585,107.08 C50.0926585,105.91 51.3886585,105.388 52.5586585,105.388 C54.2866585,105.388 55.6906585,106.45 55.6906585,109.042 L55.6906585,115 L53.5126585,115 L53.5126585,109.186 C53.5126585,107.8 52.9186585,107.206 51.8386585,107.206 C50.7586585,107.206 49.7686585,107.926 49.7686585,109.366 L49.7686585,115 L47.5906585,115 L47.5906585,109.186 C47.5906585,107.8 46.9786585,107.206 45.9166585,107.206 C44.8366585,107.206 43.8466585,107.926 43.8466585,109.366 L43.8466585,115 L41.6686585,115 Z M62.3326585,115.18 C59.5606585,115.18 57.5626585,113.362 57.5626585,110.392 L57.5626585,110.248 C57.5626585,107.332 59.5606585,105.388 62.2426585,105.388 C64.5826585,105.388 66.6886585,106.774 66.6886585,110.14 L66.6886585,110.77 L59.7946585,110.77 C59.8666585,112.552 60.7666585,113.56 62.3866585,113.56 C63.7006585,113.56 64.3846585,113.038 64.5466585,112.12 L66.6526585,112.12 C66.3466585,114.1 64.7446585,115.18 62.3326585,115.18 Z M59.8306585,109.312 L64.5286585,109.312 C64.4206585,107.692 63.5926585,106.972 62.2426585,106.972 C60.9286585,106.972 60.0466585,107.854 59.8306585,109.312 Z M68.6326585,115 L68.6326585,105.586 L70.8106585,105.586 L70.8106585,107.35 C71.4046585,106.162 72.2866585,105.46 73.8706585,105.442 L73.8706585,107.476 C71.9626585,107.494 70.8106585,108.106 70.8106585,110.104 L70.8106585,115 L68.6326585,115 Z M79.9006585,115.18 C77.2006585,115.18 75.1486585,113.416 75.1486585,110.41 L75.1486585,110.266 C75.1486585,107.278 77.2726585,105.388 79.9006585,105.388 C81.9886585,105.388 83.9506585,106.324 84.2026585,108.916 L82.0966585,108.916 C81.9166585,107.656 81.0886585,107.134 79.9366585,107.134 C78.4426585,107.134 77.3806585,108.286 77.3806585,110.23 L77.3806585,110.374 C77.3806585,112.426 78.3886585,113.506 79.9906585,113.506 C81.1426585,113.506 82.1326585,112.822 82.2586585,111.49 L84.2566585,111.49 C84.0946585,113.65 82.4566585,115.18 79.9006585,115.18 Z M90.2686585,115.18 C87.4966585,115.18 85.4986585,113.362 85.4986585,110.392 L85.4986585,110.248 C85.4986585,107.332 87.4966585,105.388 90.1786585,105.388 C92.5186585,105.388 94.6246585,106.774 94.6246585,110.14 L94.6246585,110.77 L87.7306585,110.77 C87.8026585,112.552 88.7026585,113.56 90.3226585,113.56 C91.6366585,113.56 92.3206585,113.038 92.4826585,112.12 L94.5886585,112.12 C94.2826585,114.1 92.6806585,115.18 90.2686585,115.18 Z M87.7666585,109.312 L92.4646585,109.312 C92.3566585,107.692 91.5286585,106.972 90.1786585,106.972 C88.8646585,106.972 87.9826585,107.854 87.7666585,109.312 Z" fill="#FFFFFF"></path>
            <g id="Group-12-Copy" transform="translate(10.000000, 0.000000)">
                <circle id="Oval-2" stroke="#FFFFFF" stroke-width="2" cx="57" cy="17" r="16"></circle>
                <circle id="Oval-2-Copy-2" stroke="#FFFFFF" stroke-width="2" cx="57" cy="57" r="16"></circle>
                <circle id="Oval-2-Copy" stroke="#FFFFFF" stroke-width="2" cx="17" cy="17" r="16"></circle>
                <circle id="Oval-2-Copy-3" stroke="#FFFFFF" stroke-width="2" cx="17" cy="57" r="16"></circle>
                <use id="Oval-2-Copy-3" stroke="#FF2F2F" mask="url(#mask-2)" stroke-width="4" stroke-dasharray="3" xlink:href="#path-1"></use>
                <use id="Oval-2-Copy-4" stroke="#FF2F2F" mask="url(#mask-4)" stroke-width="4" stroke-dasharray="3" xlink:href="#path-3"></use>
                <path d="M17,4 L17,31" id="Path-2" stroke="#FFFFFF" stroke-width="2" stroke-dasharray="2,2"></path>
                <path d="M57,44 L57,72" id="Path-2" stroke="#FFFFFF" stroke-width="2" stroke-dasharray="2,2"></path>
            </g>
        </g>
    </g>
</svg>