<svg width="89px" height="118px" viewBox="0 0 89 90" version="1.1" xmlns="http://www.w3.org/2000/svg" xmlns:xlink="http://www.w3.org/1999/xlink" style="vector-effect:non-scaling-stroke;">
  <style><![CDATA[ * { vector-effect: inherit; } ]]></style>
    <!-- Generator: Sketch 48.2 (47327) - http://www.bohemiancoding.com/sketch -->
    <title>Consumer</title>
    <desc>Created with Sketch.</desc>
    <defs>
        <circle id="path-1" cx="41" cy="36" r="18"></circle>
        <circle id="path-2" cx="41" cy="36" r="5"></circle>
    </defs>
    <g id="Symbols" stroke="none" stroke-width="1" fill="none" fill-rule="evenodd">
        <g id="Consumer">
            <path d="M6.57961735,117.18 C2.54761735,117.18 0.297617353,114.606 0.297617353,110.646 L0.297617353,110.502 C0.297617353,106.632 2.96161735,103.932 6.54361735,103.932 C9.49561735,103.932 11.7816174,105.408 12.0696174,108.432 L9.63961735,108.432 C9.36961735,106.722 8.41561735,105.84 6.56161735,105.84 C4.29361735,105.84 2.81761735,107.604 2.81761735,110.484 L2.81761735,110.628 C2.81761735,113.526 4.20361735,115.236 6.57961735,115.236 C8.36161735,115.236 9.62161735,114.336 9.87361735,112.518 L12.2136174,112.518 C11.8356174,115.614 9.63961735,117.18 6.57961735,117.18 Z M18.3156174,115.488 C19.9356174,115.488 20.9076174,114.282 20.9076174,112.356 L20.9076174,112.23 C20.9076174,110.286 19.9356174,109.098 18.3156174,109.098 C16.6956174,109.098 15.7056174,110.268 15.7056174,112.212 L15.7056174,112.356 C15.7056174,114.282 16.6596174,115.488 18.3156174,115.488 Z M18.2976174,117.18 C15.5256174,117.18 13.4736174,115.254 13.4736174,112.392 L13.4736174,112.248 C13.4736174,109.332 15.5436174,107.388 18.3156174,107.388 C21.0696174,107.388 23.1396174,109.314 23.1396174,112.194 L23.1396174,112.338 C23.1396174,115.272 21.0696174,117.18 18.2976174,117.18 Z M25.1016174,117 L25.1016174,107.586 L27.2796174,107.586 L27.2796174,109.08 C27.7296174,108.162 28.7736174,107.388 30.3216174,107.388 C32.2116174,107.388 33.5436174,108.486 33.5436174,111.078 L33.5436174,117 L31.3656174,117 L31.3656174,111.276 C31.3656174,109.854 30.7896174,109.206 29.4936174,109.206 C28.2696174,109.206 27.2796174,109.962 27.2796174,111.456 L27.2796174,117 L25.1016174,117 Z M39.2676174,117.18 C36.8376174,117.18 35.4156174,116.064 35.3256174,114.066 L37.3776174,114.066 C37.4856174,115.02 37.9716174,115.578 39.2496174,115.578 C40.4196174,115.578 40.9416174,115.164 40.9416174,114.372 C40.9416174,113.598 40.3116174,113.31 38.9256174,113.076 C36.4416174,112.68 35.5236174,111.978 35.5236174,110.214 C35.5236174,108.324 37.2876174,107.388 39.0516174,107.388 C40.9776174,107.388 42.5076174,108.108 42.7416174,110.232 L40.7256174,110.232 C40.5456174,109.368 40.0596174,108.972 39.0516174,108.972 C38.1156174,108.972 37.5576174,109.422 37.5576174,110.088 C37.5576174,110.772 38.0076174,111.042 39.5016174,111.294 C41.7156174,111.636 43.0296174,112.176 43.0296174,114.174 C43.0296174,116.082 41.6796174,117.18 39.2676174,117.18 Z M48.0876174,117.18 C46.2336174,117.18 44.8476174,116.118 44.8476174,113.616 L44.8476174,107.586 L47.0256174,107.586 L47.0256174,113.364 C47.0256174,114.786 47.6196174,115.434 48.8796174,115.434 C50.0496174,115.434 51.0756174,114.678 51.0756174,113.184 L51.0756174,107.586 L53.2536174,107.586 L53.2536174,117 L51.0756174,117 L51.0756174,115.524 C50.6076174,116.442 49.6176174,117.18 48.0876174,117.18 Z M55.8276174,117 L55.8276174,107.586 L58.0056174,107.586 L58.0056174,109.026 C58.4556174,108.144 59.4816174,107.388 60.8676174,107.388 C62.0916174,107.388 63.0636174,107.91 63.5316174,109.08 C64.2516174,107.91 65.5476174,107.388 66.7176174,107.388 C68.4456174,107.388 69.8496174,108.45 69.8496174,111.042 L69.8496174,117 L67.6716174,117 L67.6716174,111.186 C67.6716174,109.8 67.0776174,109.206 65.9976174,109.206 C64.9176174,109.206 63.9276174,109.926 63.9276174,111.366 L63.9276174,117 L61.7496174,117 L61.7496174,111.186 C61.7496174,109.8 61.1376174,109.206 60.0756174,109.206 C58.9956174,109.206 58.0056174,109.926 58.0056174,111.366 L58.0056174,117 L55.8276174,117 Z M76.4916174,117.18 C73.7196174,117.18 71.7216174,115.362 71.7216174,112.392 L71.7216174,112.248 C71.7216174,109.332 73.7196174,107.388 76.4016174,107.388 C78.7416174,107.388 80.8476174,108.774 80.8476174,112.14 L80.8476174,112.77 L73.9536174,112.77 C74.0256174,114.552 74.9256174,115.56 76.5456174,115.56 C77.8596174,115.56 78.5436174,115.038 78.7056174,114.12 L80.8116174,114.12 C80.5056174,116.1 78.9036174,117.18 76.4916174,117.18 Z M73.9896174,111.312 L78.6876174,111.312 C78.5796174,109.692 77.7516174,108.972 76.4016174,108.972 C75.0876174,108.972 74.2056174,109.854 73.9896174,111.312 Z M82.7916174,117 L82.7916174,107.586 L84.9696174,107.586 L84.9696174,109.35 C85.5636174,108.162 86.4456174,107.46 88.0296174,107.442 L88.0296174,109.476 C86.1216174,109.494 84.9696174,110.106 84.9696174,112.104 L84.9696174,117 L82.7916174,117 Z" fill="#FFFFFF"></path>
            <g id="Group-13-Copy" transform="translate(5.000000, 0.000000)">
                <path d="M41,0 L41,72" id="Path-2" stroke="#FF2F2F" stroke-width="2" stroke-dasharray="2,2"></path>
                <path d="M49,4 L49,68" id="Path-2" stroke="#FF2F2F" stroke-width="2" stroke-dasharray="2,2"></path>
                <path d="M57,0 L57,72" id="Path-2" stroke="#FF2F2F" stroke-width="2" stroke-dasharray="2,2"></path>
                <path d="M65,16 L65,56" id="Path-2" stroke="#FF2F2F" stroke-width="2" stroke-dasharray="2,2"></path>
                <path d="M33,4 L33,68" id="Path-2" stroke="#FF2F2F" stroke-width="2" stroke-dasharray="2,2"></path>
                <path d="M25,0 L25,72" id="Path-2" stroke="#FF2F2F" stroke-width="2" stroke-dasharray="2,2"></path>
                <path d="M17,16 L17,56" id="Path-2" stroke="#FF2F2F" stroke-width="2" stroke-dasharray="2,2"></path>
                <path d="M9,4 L9,68" id="Path-2" stroke="#FF2F2F" stroke-width="2" stroke-dasharray="2,2"></path>
                <path d="M1,24 L1,48" id="Path-2" stroke="#FF2F2F" stroke-width="2" stroke-dasharray="2,2"></path>
                <path d="M73,4 L73,68" id="Path-2" stroke="#FF2F2F" stroke-width="2" stroke-dasharray="2,2"></path>
                <path d="M81,24 L81,48" id="Path-2" stroke="#FF2F2F" stroke-width="2" stroke-dasharray="2,2"></path>
                <g id="Oval">
                    <use fill="#3D3D45" fill-rule="evenodd" xlink:href="#path-1"></use>
                    <circle stroke="#FFFFFF" stroke-width="2" cx="41" cy="36" r="17"></circle>
                </g>
                <g id="Oval">
                    <use fill="#3D3D45" fill-rule="evenodd" xlink:href="#path-2"></use>
                    <circle stroke="#FFFFFF" stroke-width="2" cx="41" cy="36" r="4"></circle>
                </g>
            </g>
        </g>
    </g>
</svg>