<?xml version="1.0" encoding="UTF-8"?>
<svg width="420px" height="40px" viewBox="0 0 422 40" version="1.1" xmlns="http://www.w3.org/2000/svg" xmlns:xlink="http://www.w3.org/1999/xlink"  style="vector-effect:non-scaling-stroke;"><style><![CDATA[ * { vector-effect: inherit; } ]]></style>
    <!-- Generator: Sketch 48.2 (47327) - http://www.bohemiancoding.com/sketch -->
    <title>Divider</title>
    <desc>Created with Sketch.</desc>
    <defs></defs>
    <g id="Artboard-Copy-21" stroke="none" stroke-width="1" fill="none" fill-rule="evenodd" transform="translate(-100.000000, -855.000000)" opacity="0.2">
        <g id="Divider" transform="translate(100.000000, 855.000000)">
            <g id="Group-15-Copy-2">
                <g id="Group-11-Copy" transform="translate(382.000000, 0.000000)">
                    <circle id="Oval-2-Copy-2" stroke="#FFFFFF" stroke-width="2" cx="20" cy="20" r="19"></circle>
                    <rect id="Rectangle-9-Copy-2" fill="#FFFFFF" transform="translate(20.000000, 20.000000) rotate(-180.000000) translate(-20.000000, -20.000000) " x="19" y="0" width="2" height="40"></rect>
                </g>
                <g id="Group-6" transform="translate(96.000000, 0.000000)" fill="#FFFFFF">
                    <rect id="Rectangle" x="0" y="0" width="40" height="2"></rect>
                    <rect id="Rectangle-Copy" x="0" y="25" width="40" height="2"></rect>
                    <rect id="Rectangle-Copy-2" x="0" y="13" width="40" height="2"></rect>
                    <rect id="Rectangle-Copy-3" x="0" y="38" width="40" height="2"></rect>
                </g>
                <g id="Group-10" stroke="#FFFFFF" stroke-width="2">
                    <rect id="Rectangle-10" x="1" y="1" width="38" height="38"></rect>
                    <circle id="Oval-4" cx="20" cy="20" r="9"></circle>
                </g>
                <g id="Group-12" transform="translate(191.000000, 0.000000)">
                    <g id="Group-11" stroke="#FFFFFF" stroke-width="2">
                        <circle id="Oval-2-Copy-2" cx="20" cy="20" r="19"></circle>
                    </g>
                    <circle id="Oval-4" stroke="#FFFFFF" stroke-width="2" cx="20" cy="20" r="10"></circle>
                    <circle id="Oval" fill="#F5F5F6" cx="20" cy="20" r="2"></circle>
                </g>
                <g id="Group-13-Copy-2" transform="translate(307.000000, 20.000000) rotate(-90.000000) translate(-307.000000, -20.000000) translate(287.000000, 0.000000)">
                    <rect id="Rectangle-10" stroke="#FFFFFF" stroke-width="2" x="1" y="1" width="38" height="38"></rect>
                    <rect id="Rectangle-9-Copy" fill="#FFFFFF" x="19" y="20" width="2" height="20"></rect>
                    <polygon id="Rectangle-9-Copy-2" fill="#FFFFFF" transform="translate(20.000000, 20.000000) rotate(-270.000000) translate(-20.000000, -20.000000) " points="19 1 21 0 21 40 19 40"></polygon>
                </g>
            </g>
        </g>
    </g>
</svg>