<svg width="84px" height="120px" viewBox="0 0 84 90" version="1.1" xmlns="http://www.w3.org/2000/svg" xmlns:xlink="http://www.w3.org/1999/xlink" style="vector-effect:non-scaling-stroke;">
  <style><![CDATA[ * { vector-effect: inherit; } ]]></style>
    <!-- Generator: Sketch 48.2 (47327) - http://www.bohemiancoding.com/sketch -->
    <title>Fintech</title>
    <desc>Created with Sketch.</desc>
    <defs>
        <circle id="path-1" cx="16" cy="16" r="16"></circle>
        <mask id="mask-2" maskContentUnits="userSpaceOnUse" maskUnits="objectBoundingBox" x="0" y="0" width="32" height="32" fill="white">
            <use xlink:href="#path-1"></use>
        </mask>
    </defs>
    <g id="Symbols" stroke="none" stroke-width="1" fill="none" fill-rule="evenodd">
        <g id="Fintech">
            <path d="M12.4972792,119 L12.4972792,106.13 L20.4712792,106.13 L20.4712792,108.038 L14.8912792,108.038 L14.8912792,111.872 L19.2832792,111.872 L19.2832792,113.726 L14.8912792,113.726 L14.8912792,119 L12.4972792,119 Z M22.4332792,119 L22.4332792,109.586 L24.6112792,109.586 L24.6112792,119 L22.4332792,119 Z M23.4952792,108.038 C22.7752792,108.038 22.1992792,107.498 22.1992792,106.796 C22.1992792,106.076 22.7752792,105.536 23.4952792,105.536 C24.2152792,105.536 24.7912792,106.076 24.7912792,106.796 C24.7912792,107.498 24.2152792,108.038 23.4952792,108.038 Z M27.2572792,119 L27.2572792,109.586 L29.4352792,109.586 L29.4352792,111.08 C29.8852792,110.162 30.9292792,109.388 32.4772792,109.388 C34.3672792,109.388 35.6992792,110.486 35.6992792,113.078 L35.6992792,119 L33.5212792,119 L33.5212792,113.276 C33.5212792,111.854 32.9452792,111.206 31.6492792,111.206 C30.4252792,111.206 29.4352792,111.962 29.4352792,113.456 L29.4352792,119 L27.2572792,119 Z M41.4052792,119.162 C39.5332792,119.162 38.5612792,118.154 38.5612792,116.372 L38.5612792,111.224 L37.3012792,111.224 L37.3012792,109.586 L38.5612792,109.586 L38.5612792,107.516 L40.7392792,107.516 L40.7392792,109.586 L42.8092792,109.586 L42.8092792,111.224 L40.7392792,111.224 L40.7392792,116.174 C40.7392792,117.002 41.1352792,117.38 41.8192792,117.38 C42.2512792,117.38 42.5752792,117.326 42.8812792,117.2 L42.8812792,118.928 C42.5392792,119.054 42.0712792,119.162 41.4052792,119.162 Z M48.9832792,119.18 C46.2112792,119.18 44.2132792,117.362 44.2132792,114.392 L44.2132792,114.248 C44.2132792,111.332 46.2112792,109.388 48.8932792,109.388 C51.2332792,109.388 53.3392792,110.774 53.3392792,114.14 L53.3392792,114.77 L46.4452792,114.77 C46.5172792,116.552 47.4172792,117.56 49.0372792,117.56 C50.3512792,117.56 51.0352792,117.038 51.1972792,116.12 L53.3032792,116.12 C52.9972792,118.1 51.3952792,119.18 48.9832792,119.18 Z M46.4812792,113.312 L51.1792792,113.312 C51.0712792,111.692 50.2432792,110.972 48.8932792,110.972 C47.5792792,110.972 46.6972792,111.854 46.4812792,113.312 Z M59.4052792,119.18 C56.7052792,119.18 54.6532792,117.416 54.6532792,114.41 L54.6532792,114.266 C54.6532792,111.278 56.7772792,109.388 59.4052792,109.388 C61.4932792,109.388 63.4552792,110.324 63.7072792,112.916 L61.6012792,112.916 C61.4212792,111.656 60.5932792,111.134 59.4412792,111.134 C57.9472792,111.134 56.8852792,112.286 56.8852792,114.23 L56.8852792,114.374 C56.8852792,116.426 57.8932792,117.506 59.4952792,117.506 C60.6472792,117.506 61.6372792,116.822 61.7632792,115.49 L63.7612792,115.49 C63.5992792,117.65 61.9612792,119.18 59.4052792,119.18 Z M65.6332792,119 L65.6332792,105.23 L67.8112792,105.23 L67.8112792,111.08 C68.2612792,110.162 69.3052792,109.388 70.8532792,109.388 C72.7432792,109.388 74.0752792,110.486 74.0752792,113.078 L74.0752792,119 L71.8972792,119 L71.8972792,113.276 C71.8972792,111.854 71.3212792,111.206 70.0252792,111.206 C68.8012792,111.206 67.8112792,111.962 67.8112792,113.456 L67.8112792,119 L65.6332792,119 Z" fill="#FFFFFF"></path>
            <g id="Group-2-Copy-3">
                <path d="M42,2.08832735 L1.68454219,76 L82.3154578,76 L42,2.08832735 Z" id="Triangle" stroke="#FFFFFF" stroke-width="2"></path>
                <g id="Group" transform="translate(26.000000, 35.000000)" stroke="#FF2F2F">
                    <use id="Oval" mask="url(#mask-2)" stroke-width="4" stroke-dasharray="3" xlink:href="#path-1"></use>
                    <circle id="Oval" stroke-width="2" cx="16" cy="16" r="7"></circle>
                </g>
                <rect id="Rectangle-4" fill="#FFFFFF" x="0" y="85" width="84" height="2"></rect>
            </g>
        </g>
    </g>
</svg>