<?xml version="1.0" encoding="UTF-8"?>
<svg width="710px" height="143px" viewBox="0 0 710 143" version="1.1" xmlns="http://www.w3.org/2000/svg" xmlns:xlink="http://www.w3.org/1999/xlink" style="vector-effect:non-scaling-stroke;">
  <style><![CDATA[ * { vector-effect: inherit; } ]]></style>
    <!-- Generator: Sketch 48.2 (47327) - http://www.bohemiancoding.com/sketch -->
    <title>Icon</title>
    <desc>Created with Sketch.</desc>
    <defs>
        <polygon id="path-1" points="31.5170455 97.4829545 97.4829545 97.4829545 97.4829545 31.5170455 31.5170455 31.5170455"></polygon>
        <mask id="mask-2" maskContentUnits="userSpaceOnUse" maskUnits="objectBoundingBox" x="0" y="0" width="65.9659091" height="65.9659091" fill="white">
            <use xlink:href="#path-1"></use>
        </mask>
    </defs>
    <g id="Artboard-Copy-108" stroke="none" stroke-width="1" fill="none" fill-rule="evenodd" transform="translate(0.000000, -345.000000)">
        <g id="Icon" transform="translate(-63.000000, 345.000000)">
            <g id="Group-4" transform="translate(0.000000, 7.000000)" stroke="#FFFFFF">
                <path d="M1,128 L128,128 L128,1 L1,1 L1,128 Z" id="Stroke-1" stroke-width="2"></path>
                <use id="Stroke-1" mask="url(#mask-2)" stroke-width="4" stroke-dasharray="4" xlink:href="#path-1"></use>
            </g>
            <g id="Group-3" transform="translate(229.000000, 7.000000)">
               <path d="M97.5,29.5 L28.8523489,98.1476511" id="Line" stroke="#FF2F2F" stroke-width="2" stroke-linecap="square"></path>
                <path d="M128,64.5 C128,29.4299811 99.5698291,1 64.5,1 C29.4297643,1 1,29.4297643 1,64.5 C1,99.5702357 29.4297643,128 64.5,128 C99.5698291,128 128,99.5700189 128,64.5 Z" id="Stroke-3" stroke="#FFFFFF" stroke-width="2" transform="translate(64.500000, 64.500000) rotate(-540.000000) translate(-64.500000, -64.500000) "></path>
            </g>
            <g id="Group-2" transform="translate(459.000000, 7.000000)">
                <path d="M77.1797875,1.95108095 L1.76362973,128 L152.240634,128 L77.1797875,1.95108095 Z" id="Stroke-5" stroke="#FFFFFF" stroke-width="2"></path>
                <path d="M106.333333,83.5568182 C106.333333,99.748873 93.2001392,112.875 77,112.875 C60.7995772,112.875 47.6666667,99.748873 47.6666667,83.5568182 C47.6666667,67.3647634 60.7995772,54.2386364 77,54.2386364 C93.2001392,54.2386364 106.333333,67.3647634 106.333333,83.5568182 Z" id="Stroke-3-Copy" stroke="#FF2F2F" stroke-width="2"></path>
            </g>
            <g id="Group-6-Copy" transform="translate(146.000000, 40.000000)" stroke="#63636A">
                <g id="Group" stroke-width="2">
                    <polyline id="Stroke-6" points="33.9772727 0 65 30.9997003 33.9772727 62"></polyline>
                    <path d="M65,31 L0,31" id="Stroke-7"></path>
                </g>
            </g>
            <g id="Group-6-Copy-2" transform="translate(391.000000, 40.000000)" stroke="#63636A">
                <g id="Group" stroke-width="2">
                    <polyline id="Stroke-6" points="33.9772727 0 65 30.9997003 33.9772727 62"></polyline>
                    <path d="M65,31 L0,31" id="Stroke-7"></path>
                </g>
            </g>
            <g id="Group-6-Copy-3" transform="translate(614.000000, 40.000000)" stroke="#63636A">
                <g id="Group" stroke-width="2">
                    <polyline id="Stroke-6" points="33.9772727 0 65 30.9997003 33.9772727 62"></polyline>
                    <path d="M65,31 L0,31" id="Stroke-7"></path>
                </g>
            </g>
            <g id="Group-5" transform="translate(706.515789, 0.000000)">
                <g id="Group-4" stroke-width="2">
                    <path d="M131.463158,106.652969 L131.463158,36.346465 L66.2312763,1.13637682 L1,36.3464624 L1,106.652972 L66.2312763,141.863619 L131.463158,106.652969 Z" id="Stroke-4" stroke="#FFFFFF"></path>
                    <path d="M100.1,71.5 C100.1,90.2050934 84.9363449,105.368421 66.2315789,105.368421 C47.5264856,105.368421 32.3631579,90.2050934 32.3631579,71.5 C32.3631579,52.7949066 47.5264856,37.6315789 66.2315789,37.6315789 C84.9363449,37.6315789 100.1,52.7949066 100.1,71.5 Z" id="Stroke-3-Copy-2" stroke="#FF2F2F"></path>
                </g>
            </g>
        </g>
    </g>
</svg>