<?xml version="1.0" standalone="no"?>
<!DOCTYPE svg PUBLIC "-//W3C//DTD SVG 20010904//EN"
 "http://www.w3.org/TR/2001/REC-SVG-20010904/DTD/svg10.dtd">
<svg version="1.0" xmlns="http://www.w3.org/2000/svg"
 width="1200.000000pt" height="618.000000pt" viewBox="0 0 1200.000000 618.000000"
 preserveAspectRatio="xMidYMid meet">
<metadata>
Created by potrace 1.15, written by Peter Selinger 2001-2017
</metadata>
<g transform="translate(0.000000,618.000000) scale(0.100000,-0.100000)"
fill="#000000" stroke="none">
<path d="M2817 6164 c-1140 -177 -2079 -1438 -2567 -3449 -116 -475 -240
-1197 -244 -1415 l-1 -85 31 -3 c21 -2 33 2 37 12 4 9 23 112 42 229 173 1017
454 1919 825 2652 496 979 1103 1567 1771 1717 92 20 130 23 319 23 200 -1
223 -3 334 -29 160 -37 266 -75 421 -151 150 -73 310 -171 451 -275 l97 -72
-57 -24 c-101 -41 -294 -156 -424 -254 -152 -113 -401 -358 -518 -510 -309
-399 -552 -864 -713 -1363 -80 -248 -141 -544 -141 -685 0 -51 3 -63 20 -72
40 -21 56 1 64 87 27 308 216 830 456 1258 83 148 250 397 353 525 335 420
692 689 1082 818 412 136 830 98 1282 -118 214 -102 387 -217 710 -471 84 -66
173 -66 242 -1 82 78 79 181 -7 262 -172 161 -654 441 -936 545 -256 94 -445
128 -726 129 l-215 2 -95 75 c-464 367 -914 580 -1362 644 -128 18 -412 18
-531 -1z"/>
<path d="M5585 3674 c-245 -19 -439 -56 -631 -119 -580 -191 -1034 -626 -1268
-1216 -92 -233 -135 -446 -143 -709 -10 -330 36 -579 152 -826 63 -135 136
-237 254 -355 189 -189 397 -304 686 -379 206 -53 313 -64 610 -65 333 0 515
22 838 102 125 31 148 40 152 57 3 12 46 246 95 521 50 275 111 606 135 736
25 130 45 253 45 274 0 44 -25 89 -57 104 -34 16 -162 14 -300 -4 -147 -20
-430 -82 -461 -101 -51 -33 -151 -227 -175 -339 -16 -79 -4 -89 93 -82 41 3
126 13 188 23 62 9 115 15 117 13 8 -9 -141 -841 -156 -870 -18 -35 -310 -74
-484 -65 -678 34 -1081 416 -1135 1074 -18 222 18 515 91 733 82 247 204 444
389 630 293 294 640 442 1072 456 220 8 387 -20 616 -103 138 -49 173 -56 230
-44 95 22 165 96 202 219 l20 64 -32 28 c-111 95 -364 183 -641 224 -106 15
-403 27 -502 19z"/>
<path d="M7960 3664 c-263 -26 -513 -76 -552 -111 -39 -34 -99 -137 -119 -204
-34 -111 -17 -122 156 -99 38 5 71 7 74 5 2 -2 -17 -134 -42 -292 -26 -158
-103 -652 -171 -1098 -145 -938 -191 -1230 -246 -1554 -22 -129 -40 -241 -40
-248 0 -8 11 -25 25 -38 24 -25 25 -25 222 -25 219 0 247 7 271 66 7 16 68
400 136 854 147 969 307 2013 342 2225 13 82 24 153 24 159 0 17 318 0 405
-23 356 -93 532 -370 494 -778 -41 -450 -250 -707 -627 -773 -96 -17 -279 -15
-340 4 -29 8 -59 13 -67 9 -21 -7 -20 -135 1 -196 19 -56 83 -131 135 -158 52
-26 185 -42 284 -34 524 43 939 355 1088 820 53 162 62 234 61 460 0 196 -2
217 -27 310 -46 170 -110 287 -221 404 -251 263 -689 372 -1266 315z"/>
<path d="M10969 3660 c-94 -23 -189 -65 -189 -82 0 -7 5 -32 10 -54 9 -41 8
-45 -341 -720 -193 -374 -544 -1055 -781 -1514 -236 -459 -472 -914 -524
-1011 -52 -97 -94 -188 -94 -202 0 -53 26 -58 252 -55 176 3 208 5 231 21 21
13 92 146 290 542 l262 525 356 0 c381 0 392 1 467 52 86 59 152 188 152 299
l0 49 -380 0 c-209 0 -380 1 -380 3 0 1 153 305 339 676 232 463 340 668 344
655 3 -10 121 -629 262 -1374 140 -745 262 -1376 271 -1403 20 -59 41 -71 118
-64 77 6 294 63 335 88 25 15 31 25 31 55 0 46 -675 3344 -696 3402 -19 51
-56 97 -95 117 -38 20 -146 18 -240 -5z"/>
</g>
</svg>
