<?xml version="1.0" encoding="UTF-8"?>
<svg width="102px" height="35px" viewBox="0 0 102 35" version="1.1" xmlns="http://www.w3.org/2000/svg" xmlns:xlink="http://www.w3.org/1999/xlink">
    <!-- Generator: Sketch 47 (45396) - http://www.bohemiancoding.com/sketch -->
    <title>logo@1,5x</title>
    <desc>Created with Sketch.</desc>
    <defs>
        <polygon id="path-1" points="0.000334724452 0.0619347826 16.7457622 0.0619347826 16.7457622 24.5857652 0.000334724452 24.5857652"></polygon>
        <polygon id="path-3" points="12.2968258 16.7388793 12.2968258 0.131151087 4.7752809e-05 0.131151087 4.7752809e-05 16.7388793 12.2968258 16.7388793"></polygon>
    </defs>
    <g id="Telas" stroke="none" stroke-width="1" fill="none" fill-rule="evenodd">
        <g id="login1.0" transform="translate(-539.000000, -266.000000)">
            <g id="logo_footer" transform="translate(539.000000, 266.000000)">
                <g id="Page-1">
                    <path d="M6.84801828,20.923913 L6.84801828,20.923913 L6.84221672,20.923913 L3.99613635,20.923913 L3.85441249,20.923913 C2.99329499,20.923913 2.29213483,21.5903394 2.29213483,22.4105564 L2.29213483,22.480748 C2.29213483,23.3001763 2.99329499,23.9673913 3.85441249,23.9673913 L4.00193792,23.9673913 L6.6946913,23.9673913 L6.84221672,23.9673913 C7.70333422,23.9673913 8.40449438,23.3001763 8.40449438,22.480748 L8.40449438,22.4105564 C8.40449438,21.5927054 7.7066494,20.9270677 6.84801828,20.923913" id="Fill-1" fill="#F7C116"></path>
                    <path d="M8.27616218,11.1814591 L8.27616218,9.35124613 C8.4414016,8.74642962 8.9076128,8.25361617 9.4808924,8.25361617 L14.455779,8.25361617 C15.3317166,8.25361617 16.0449438,7.55173034 16.0449438,6.68972162 L16.0449438,3.84650325 C16.0449438,2.98366487 15.3317166,2.2826087 14.455779,2.2826087 L3.8812996,2.2826087 C3.00451904,2.2826087 2.29213483,2.98366487 2.29213483,3.84650325 L2.29213483,11.1715032 C2.29213483,11.6842284 3.11664579,11.2212824 3.96307625,11.2212824" id="Fill-3" fill="#F7C116"></path>
                    <g id="Group-7">
                        <mask id="mask-2" fill="white">
                            <use xlink:href="#path-1"></use>
                        </mask>
                        <g id="Clip-6"></g>
                        <path d="M5.99692327,24.5857652 L2.86892327,24.5857652 C1.28651343,24.5857652 0.000334724452,23.2985261 0.000334724452,21.7166783 L0.000334724452,21.6354935 C0.000334724452,20.0536457 1.28651343,18.7664065 2.86892327,18.7664065 L10.0445787,18.7664065 C10.9943593,18.7664065 11.7658992,17.9938957 11.7658992,17.044787 L11.7658992,13.9162435 C11.7658992,12.9671348 10.9943593,12.1946239 10.0445787,12.1946239 L2.86892327,12.1946239 C1.28651343,12.1946239 0.000334724452,11.2045043 0.000334724452,9.98756957 L0.000334724452,2.93035217 C0.000334724452,1.34850435 1.28651343,0.0612652174 2.86892327,0.0612652174 L13.8771737,0.0612652174 C15.4587467,0.0612652174 16.7457622,1.34850435 16.7457622,2.93035217 L16.7457622,6.05973261 C16.7457622,7.64158043 15.4587467,8.92881957 13.8771737,8.92881957 L8.87973761,8.92881957 C8.87304312,8.94053696 8.86551182,8.96146087 8.86551182,8.98908043 L8.86551182,9.62349348 C8.86551182,9.93986304 8.60861081,10.1968087 8.29145939,10.1968087 C7.97514478,10.1968087 7.71824377,9.93986304 7.71824377,9.62349348 L7.71824377,8.98908043 C7.71824377,8.32286304 8.22284088,7.78135217 8.84375474,7.78135217 L13.8771737,7.78135217 C14.8261175,7.78135217 15.5984942,7.0088413 15.5984942,6.05973261 L15.5984942,2.93035217 C15.5984942,1.98124348 14.8261175,1.20956957 13.8771737,1.20956957 L2.86892327,1.20956957 C1.91997945,1.20956957 1.14760278,1.98124348 1.14760278,2.93035217 L1.14760278,9.98756957 C1.14760278,10.5525152 1.95177828,11.0471565 2.86892327,11.0471565 L10.0445787,11.0471565 C11.6269886,11.0471565 12.9131673,12.3343957 12.9131673,13.9162435 L12.9131673,17.044787 C12.9131673,18.6274717 11.6269886,19.9138739 10.0445787,19.9138739 L2.86892327,19.9138739 C1.91997945,19.9138739 1.14760278,20.6863848 1.14760278,21.6354935 L1.14760278,21.7166783 C1.14760278,22.665787 1.91997945,23.4382978 2.86892327,23.4382978 L5.99692327,23.4382978 C7.06469428,23.4382978 7.71824377,22.9704391 7.71824377,22.7151674 L7.71824377,21.4187217 C7.71824377,21.1023522 7.97514478,20.8454065 8.29145939,20.8454065 C8.60861081,20.8454065 8.86551182,21.1023522 8.86551182,21.4187217 L8.86551182,22.7151674 C8.86551182,23.7638739 7.60527426,24.5857652 5.99692327,24.5857652" id="Fill-5" fill="#86288F" mask="url(#mask-2)"></path>
                    </g>
                    <path d="M18.3567443,15.9782609 L14.8792107,15.9782609 C14.4695199,15.9782609 14.1348315,15.6442145 14.1348315,15.2370956 L14.1348315,11.774577 C14.1348315,11.366655 14.4695199,11.0326087 14.8792107,11.0326087 L18.3567443,11.0326087 C18.7664352,11.0326087 19.1011236,11.366655 19.1011236,11.774577 L19.1011236,15.2370956 C19.1011236,15.6442145 18.7664352,15.9782609 18.3567443,15.9782609" id="Fill-8" fill="#F7C116"></path>
                    <path d="M23.093382,8.75 L18.5462433,8.75 C18.0114313,8.75 17.5730337,8.31342442 17.5730337,7.7800144 L17.5730337,3.2525943 C17.5730337,2.71918428 18.0114313,2.2826087 18.5462433,2.2826087 L23.093382,2.2826087 C23.6290182,2.2826087 24.0674157,2.71918428 24.0674157,3.2525943 L24.0674157,7.7800144 C24.0674157,8.31342442 23.6290182,8.75 23.093382,8.75" id="Fill-10" fill="#F7C116"></path>
                    <path d="M19.8651685,16.0404696 C19.8651685,14.9842273 20.4366103,14.4565217 21.5794937,14.4565217 L29.9173478,14.4565217 C30.8566237,14.4565217 31.3258427,14.8761931 31.3258427,15.7138738 C31.3258427,16.0097214 31.2789208,16.2773138 31.185077,16.5174822 C31.0912332,16.7584816 31.0200125,16.9180398 30.9739284,16.9944948 L22.7072951,16.9944948 L22.7072951,21.2344224 L29.2361423,21.2344224 C30.1754182,21.2344224 30.6446373,21.6540938 30.6446373,22.4926055 C30.6446373,22.787622 30.5977154,23.0552145 30.5038715,23.2953829 C30.4100277,23.5372133 30.3396449,23.6959405 30.292723,23.7732265 L22.7072951,23.7732265 L22.7072951,30.4347826 L19.8651685,30.4347826 L19.8651685,16.0404696 Z" id="Fill-12" fill="#000000"></path>
                    <path d="M40.1622768,24.9681581 C40.0073248,24.937838 39.7164791,24.8911287 39.291397,24.8304886 C38.8654862,24.7690291 38.2266201,24.738709 37.3747985,24.738709 C36.3224509,24.738709 35.5551486,24.8952261 35.0762062,25.2090796 C34.5956065,25.5237527 34.3561352,26.0170682 34.3561352,26.6914846 C34.3561352,26.9660041 34.4058524,27.2192175 34.5069441,27.4486666 C34.6072071,27.6789352 34.7812174,27.8739669 35.0298034,28.0345813 C35.2767322,28.1951956 35.6139807,28.3181148 36.0398914,28.4016998 C36.4658022,28.4861043 36.9952905,28.5287163 37.6308422,28.5287163 C38.3426269,28.5287163 38.9077458,28.501674 39.326199,28.4475896 C39.7438236,28.3943246 40.0230686,28.3525321 40.1622768,28.3213926 L40.1622768,24.9681581 Z M42.7865169,30.0676641 C42.6315649,30.0979841 42.3879506,30.1324015 42.0548452,30.1709162 C41.7217399,30.2086114 41.3314598,30.2463066 40.8823477,30.2848212 C40.4332356,30.3233359 39.9302631,30.3577533 39.3726017,30.3880733 C38.8149404,30.4192128 38.2340776,30.4347826 37.6308422,30.4347826 C36.4227139,30.4347826 35.4358273,30.3315305 34.6693537,30.1242069 C33.90288,29.9177027 33.2988159,29.6423638 32.85799,29.2973707 C32.4163354,28.9531971 32.1147177,28.554939 31.9523081,28.103416 C31.7898986,27.6510735 31.7078652,27.1888975 31.7078652,26.7136101 C31.7078652,26.0859029 31.8048137,25.5344057 31.9987108,25.0599377 C32.1917793,24.5854698 32.5099695,24.1872117 32.9507954,23.8651635 C33.39245,23.5439348 33.968341,23.3030133 34.6809543,23.1415795 C35.3935677,22.9809651 36.2603044,22.9014774 37.2819931,22.9014774 C37.8703134,22.9014774 38.4279748,22.920325 38.9541486,22.9588396 C39.4803224,22.9973543 39.8755742,23.0317717 40.1390754,23.0620917 C40.1390754,22.5261642 40.0495844,22.0820163 39.8714311,21.7296481 C39.6941064,21.3772799 39.4496634,21.101941 39.1405881,20.9028119 C38.8306842,20.7036829 38.4586337,20.5660134 38.0252654,20.4889841 C37.591897,20.4127742 37.1112973,20.375079 36.5859521,20.375079 C35.702643,20.375079 34.9950014,20.4742338 34.4605414,20.6733628 C33.9260814,20.8724919 33.5739178,21.0404814 33.4040507,21.1781508 C33.3104166,21.101941 33.1828091,20.9560769 33.0203995,20.7421976 C32.85799,20.5274988 32.7767852,20.2677296 32.7767852,19.9612512 C32.7767852,19.7465524 32.8347886,19.5359509 32.9507954,19.3294467 C33.0668022,19.1229426 33.2723001,18.9393833 33.5664602,18.7779495 C33.8606204,18.6173351 34.2550436,18.4911381 34.7505584,18.398539 C35.2460733,18.3075788 35.8733388,18.2608696 36.6323548,18.2608696 C37.5454943,18.2608696 38.3774289,18.3501908 39.1281588,18.5255555 C39.8797173,18.7017396 40.5252124,18.9811758 41.0679586,19.3638641 C41.6098762,19.7465524 42.0316439,20.2521599 42.3340902,20.879867 C42.635708,21.5075742 42.7865169,22.2655756 42.7865169,23.1538714 L42.7865169,30.0676641 Z" id="Fill-14" fill="#000000"></path>
                    <path d="M51.3349606,28.0346638 C51.8638857,28.0346638 52.3503302,27.9373954 52.7942941,27.7428586 C53.2382579,27.5491532 53.6189174,27.285614 53.9379383,26.9505783 C54.2569593,26.6172054 54.5018474,26.2206496 54.6734357,25.7625736 C54.844191,25.3044976 54.9299852,24.8031912 54.9299852,24.2594857 C54.9299852,23.7157802 54.844191,23.2103171 54.6734357,22.7447589 C54.5018474,22.2783693 54.2569593,21.8793194 53.9379383,21.5442838 C53.6189174,21.2109109 53.2382579,20.9473717 52.7942941,20.7520035 C52.3503302,20.558298 51.8638857,20.461861 51.3349606,20.461861 C50.7902095,20.461861 50.2962684,20.558298 49.8523045,20.7520035 C49.4091736,20.9473717 49.031013,21.2150676 48.7203216,21.5567541 C48.4087972,21.8984406 48.1639091,22.3016472 47.9848242,22.7680368 C47.8057394,23.2344263 47.7166134,23.731576 47.7166134,24.2594857 C47.7166134,24.8189869 47.8057394,25.3311009 47.9848242,25.7974904 C48.1639091,26.2630486 48.412962,26.6596045 48.7319829,26.9854952 C49.0510039,27.3122173 49.4324963,27.5682743 49.8764602,27.7544976 C50.3195911,27.9415522 50.8060356,28.0346638 51.3349606,28.0346638 L51.3349606,28.0346638 Z M45.0786517,14.1693432 C45.0786517,13.7503408 45.2027617,13.4394144 45.4518146,13.2373954 C45.7008675,13.0362078 46.0507077,12.9347826 46.5021681,12.9347826 C46.7828732,12.9347826 47.0394227,12.9696995 47.2726495,13.0395332 C47.5058763,13.1101983 47.6616385,13.1600795 47.7399361,13.191671 L47.7399361,19.8782505 C48.1280921,19.3819323 48.6653467,18.9587731 49.3508669,18.6087731 C50.0355542,18.2587731 50.8210287,18.0841888 51.7089565,18.0841888 C52.5643991,18.0841888 53.3548713,18.2363266 54.0778744,18.5389394 C54.8025434,18.8415522 55.4322558,19.2688681 55.9695104,19.8200558 C56.505932,20.3720748 56.9265732,21.0238562 57.229768,21.7778942 C57.5337958,22.5319323 57.6853933,23.3591294 57.6853933,24.2594857 C57.6853933,25.1448776 57.5296311,25.9687494 57.2181067,26.7294382 C56.9065823,27.4909584 56.4717809,28.1435712 55.9112037,28.6864453 C55.3506264,29.2301508 54.685097,29.6574667 53.9146157,29.9683931 C53.1441343,30.2784881 52.300353,30.4347826 51.381606,30.4347826 C50.4636919,30.4347826 49.6190777,30.2951152 48.8485963,30.0149489 C48.0781149,29.735614 47.4134186,29.3157802 46.8528413,28.756279 C46.292264,28.1976092 45.8566297,27.4976092 45.5451053,26.6596045 C45.2335809,25.8207684 45.0786517,24.8339513 45.0786517,23.6999845 L45.0786517,14.1693432 Z" id="Fill-16" fill="#000000"></path>
                    <path d="M71.0594079,24.5812197 C70.9188059,24.5504334 70.547215,24.4880287 69.9454721,24.3940056 C69.3428922,24.3008145 68.4557608,24.254219 67.2824039,24.254219 C66.7040946,24.254219 66.1801849,24.293326 65.7106748,24.3715399 C65.2420016,24.4489217 64.8394448,24.5853801 64.5030044,24.7792507 C64.166564,24.9739535 63.9087937,25.2335571 63.7288567,25.5605578 C63.5489196,25.8867265 63.4593696,26.2919412 63.4593696,26.7737056 C63.4593696,27.6132571 63.7907885,28.2314799 64.4561371,28.6267098 C65.1206487,29.0236038 66.2270523,29.2216348 67.7753477,29.2216348 C68.7922012,29.2216348 69.5504475,29.1791996 70.0509236,29.0943292 C70.5513996,29.0086267 70.8870031,28.9420617 71.0594079,28.8962982 L71.0594079,24.5812197 Z M66.7434297,19.5430786 C65.8671782,19.5430786 65.1557992,19.6520788 64.6084558,19.8700793 C64.0611125,20.0880798 63.685337,20.2902711 63.4828032,20.4758211 C63.3731672,20.3992714 63.2752479,20.2902711 63.1898825,20.1504845 C63.1036801,20.0098659 63.0601604,19.8542701 63.0601604,19.6836972 C63.0601604,19.5122922 63.1036801,19.3650171 63.1898825,19.2402077 C63.2752479,19.1162303 63.3806994,19.00723 63.5062369,18.9132069 C63.6627403,18.7900616 64.0067129,18.649443 64.5381549,18.4946793 C65.0695968,18.3390835 65.789345,18.2608696 66.6965624,18.2608696 C68.5570277,18.2608696 70.0040562,18.6419544 71.0359742,19.403292 C72.0678922,20.1654617 72.5842697,21.3944186 72.5842697,23.0884988 L72.5842697,30.0620184 C72.1306609,30.1394003 71.4778661,30.2209424 70.6250482,30.3066449 C69.7730673,30.3915153 68.8081026,30.4347826 67.7284804,30.4347826 C66.4772903,30.4347826 65.4729905,30.3257824 64.7139073,30.1086139 C63.955661,29.8906134 63.3656349,29.60688 62.9429921,29.2565815 C62.5211862,28.907115 62.2391454,28.5152134 62.0985434,28.0792124 C61.9579414,27.6448755 61.8876404,27.2088745 61.8876404,26.7737056 C61.8876404,26.2137273 61.9738428,25.7045047 62.1454107,25.246038 C62.3178155,24.7875714 62.6107363,24.3940056 63.0250099,24.0678369 C63.4392836,23.7416682 63.9983437,23.4853928 64.7021905,23.2981787 C65.4060372,23.1117966 66.289821,23.0186055 67.3535418,23.0186055 C67.6966776,23.0186055 68.0573886,23.0302544 68.4323271,23.0535522 C68.8081026,23.0768499 69.1629552,23.1001477 69.4993956,23.1234455 C69.835836,23.1467432 70.1404736,23.1742013 70.4141453,23.2049876 C70.687817,23.236606 70.9029045,23.2599038 71.0594079,23.275713 L71.0594079,23.1350943 C71.0594079,22.4195202 70.938055,21.8287555 70.6953492,21.3628002 C70.4534804,20.8960129 70.1329414,20.527409 69.7345691,20.2553245 C69.33536,19.9832399 68.8784036,19.7968578 68.3620261,19.6953461 C67.8456487,19.5946665 67.3066745,19.5430786 66.7434297,19.5430786 L66.7434297,19.5430786 Z" id="Fill-18" fill="#86288F"></path>
                    <path d="M85.4478996,24.2914022 C85.4478996,23.6442432 85.3432231,23.0325337 85.1338701,22.4538004 C84.9236864,21.8767159 84.6212876,21.3763012 84.2250123,20.9525564 C83.8295678,20.5288115 83.3560313,20.1932781 82.8052335,19.9467806 C82.253605,19.7011075 81.6288691,19.5774465 80.9310258,19.5774465 C80.2473055,19.5774465 79.6300465,19.6969855 79.0792488,19.9360633 C78.5276203,20.1751412 78.0582376,20.5016061 77.67027,20.9171069 C77.2823023,21.3334321 76.9799036,21.8305492 76.7622429,22.408458 C76.5445823,22.9855425 76.4365827,23.6137401 76.4365827,24.2914022 C76.4365827,24.9377368 76.5445823,25.5502707 76.7622429,26.129004 C76.9799036,26.7060884 77.2864561,27.2065031 77.6819007,27.630248 C78.078176,28.0539929 78.5517125,28.3928239 79.1025102,28.646741 C79.653308,28.9014826 80.2630901,29.0284412 80.9310258,29.0284412 C81.6288691,29.0284412 82.253605,28.9097267 82.8052335,28.6706488 C83.3560313,28.4307466 83.8295678,28.0960376 84.2250123,27.6648731 C84.6212876,27.2337085 84.9236864,26.7332939 85.1338701,26.1636291 C85.3432231,25.5931398 85.4478996,24.9690642 85.4478996,24.2914022 L85.4478996,24.2914022 Z M74.8764045,24.8462277 C74.8764045,24.4760692 74.8880352,24.1487799 74.9112967,23.8635353 C74.9345581,23.5791151 74.9611426,23.3284955 74.9927117,23.1125011 C75.1322804,22.3581692 75.3732025,21.6805072 75.7146472,21.079515 C76.056092,20.4785227 76.4831056,19.9706884 76.9956881,19.5543632 C77.5074399,19.1380379 78.0972836,18.8189927 78.7652193,18.5955786 C79.4323243,18.3721644 80.1542598,18.2608696 80.9310258,18.2608696 C81.8307452,18.2608696 82.661511,18.4183312 83.4224925,18.7340788 C84.1826433,19.0506509 84.8347944,19.480991 85.3781153,20.0275724 C85.9214361,20.5749783 86.3442959,21.2147176 86.6466947,21.9459661 C86.9499242,22.6780389 87.1011236,23.4595762 87.1011236,24.2914022 C87.1011236,25.1380675 86.9499242,25.9278488 86.6466947,26.6599217 C86.3442959,27.3919945 85.9214361,28.0309095 85.3781153,28.5774909 C84.8347944,29.1240723 84.1826433,29.5519392 83.4224925,29.8602672 C82.661511,30.1677708 81.8307452,30.3219348 80.9310258,30.3219348 C79.9365991,30.3219348 79.0443566,30.117482 78.2526368,29.7094009 C77.460917,29.3013197 76.8478118,28.76628 76.4133213,28.1042817 L76.4133213,34.6195652 L74.8764045,34.6195652 L74.8764045,24.8462277 Z" id="Fill-20" fill="#86288F"></path>
                    <g id="Group-24" transform="translate(89.393258, 18.260870)">
                        <mask id="mask-4" fill="white">
                            <use xlink:href="#path-3"></use>
                        </mask>
                        <g id="Clip-23"></g>
                        <path d="M10.6340014,6.25348804 C10.6340014,5.59647717 10.5287065,4.97545543 10.3181166,4.38791196 C10.106691,3.80204239 9.80250562,3.29400978 9.40388904,2.86381413 C9.00610815,2.43361848 8.52977388,2.09297717 7.97572191,1.84272717 C7.42083427,1.59331413 6.7924073,1.46777065 6.09044101,1.46777065 C5.40268118,1.46777065 4.78177528,1.58912935 4.22772331,1.83184674 C3.67283567,2.07456413 3.20067978,2.40599891 2.81041994,2.827825 C2.42016011,3.25048804 2.11597472,3.75517283 1.89702809,4.34187935 C1.67808146,4.92774891 1.56944382,5.56550978 1.56944382,6.25348804 C1.56944382,6.90966196 1.67808146,7.53152065 1.89702809,8.11906413 C2.11597472,8.7049337 2.42433848,9.2129663 2.82211938,9.64316196 C3.22073596,10.0733576 3.69707022,10.4173467 4.25112219,10.6751293 C4.80517416,10.9337489 5.41855899,11.0626402 6.09044101,11.0626402 C6.7924073,11.0626402 7.42083427,10.9421185 7.97572191,10.6994011 C8.52977388,10.4558467 9.00610815,10.1160424 9.40388904,9.67831413 C9.80250562,9.24058587 10.106691,8.73255326 10.3181166,8.1542163 C10.5287065,7.57504239 10.6340014,6.9414663 10.6340014,6.25348804 L10.6340014,6.25348804 Z M4.7752809e-05,6.81675978 C4.7752809e-05,6.4409663 0.011747191,6.10869457 0.0351460674,5.81910761 C0.0585449438,5.53035761 0.0852865169,5.27592283 0.117042135,5.05664022 C0.257435393,4.290825 0.499780899,3.60284674 0.843242978,2.99270543 C1.18670506,2.38256413 1.61624157,1.86699891 2.13185253,1.44433587 C2.64662781,1.02167283 3.23995646,0.697770652 3.91183848,0.470955435 C4.58288483,0.244140217 5.30908567,0.131151087 6.09044101,0.131151087 C6.99547612,0.131151087 7.83115028,0.291009783 8.59662781,0.61156413 C9.36126966,0.932955435 10.0172739,1.36984674 10.5638048,1.92474891 C11.1103357,2.48048804 11.5356938,3.1299663 11.8398792,3.87234674 C12.1449003,4.61556413 12.296993,5.40899891 12.296993,6.25348804 C12.296993,7.11304239 12.1449003,7.91484674 11.8398792,8.65806413 C11.5356938,9.40128152 11.1103357,10.0499228 10.5638048,10.604825 C10.0172739,11.1597272 9.36126966,11.5941076 8.59662781,11.9071293 C7.83115028,12.2193141 6.99547612,12.375825 6.09044101,12.375825 C5.09013904,12.375825 4.192625,12.1682598 3.39622753,11.7539663 C2.59983006,11.3396728 1.98310253,10.796488 1.54604494,10.124412 L1.54604494,16.7388793 L4.7752809e-05,16.7388793 L4.7752809e-05,6.81675978 Z" id="Fill-22" fill="#86288F" mask="url(#mask-4)"></path>
                    </g>
                </g>
            </g>
        </g>
    </g>
</svg>