<?xml version="1.0" encoding="UTF-8"?>
<svg width="237px" height="104px" viewBox="0 0 237 104" version="1.1" xmlns="http://www.w3.org/2000/svg" xmlns:xlink="http://www.w3.org/1999/xlink">
    <!-- Generator: Sketch 48.2 (47327) - http://www.bohemiancoding.com/sketch -->
    <title>Logo</title>
    <desc>Created with Sketch.</desc>
    <defs></defs>
    <g id="Artboard-Copy-21" stroke="none" stroke-width="1" fill="none" fill-rule="evenodd" transform="translate(-100.000000, -149.000000)">
        <g id="Logo" transform="translate(100.000000, 149.000000)">
            <g id="Group-3-Copy-9">
                <g id="Group">
                    <path d="M25.5020737,8.98429319 L25.5020737,2.61361257 L0,2.61361257 L0,42.9068063 L7.69976959,42.9068063 L7.69976959,26.7350785 L22.9900922,26.7350785 L22.9900922,20.4188482 L7.69976959,20.4188482 L7.69976959,8.98429319 L25.5020737,8.98429319 Z M34.3486175,8.76649215 C36.9152074,8.76649215 38.7172811,6.96963351 38.7172811,4.4104712 C38.7172811,1.8513089 36.9152074,0 34.3486175,0 C31.7820276,0 29.9253456,1.8513089 29.9253456,4.4104712 C29.9253456,6.96963351 31.7820276,8.76649215 34.3486175,8.76649215 Z M30.6352535,42.9068063 L38.0619816,42.9068063 L38.0619816,13.5581152 L30.6352535,13.5581152 L30.6352535,42.9068063 Z M51.7686636,17.478534 L51.659447,13.5581152 L44.5057604,13.5581152 L44.5057604,42.9068063 L51.9324885,42.9068063 L51.9324885,27.1706806 C51.9324885,22.7602094 55.9735023,19.8198953 62.0896313,19.8198953 L62.581106,13.0136126 C57.8301843,13.0136126 54.1168203,14.5926702 51.7686636,17.478534 Z M76.287788,43.4513089 C83.6599078,43.4513089 88.5746544,39.7486911 88.5746544,34.1947644 C88.5746544,29.0219895 84.5882488,26.7350785 79.5642857,25.4282723 L77.1069124,24.7204188 C74.5403226,24.0670157 72.6836406,23.2502618 72.6836406,21.5078534 C72.6836406,19.8198953 74.5403226,18.8397906 77.216129,18.8397906 C79.8373272,18.8397906 82.3493088,19.4387435 84.6974654,20.7455497 L87.8101382,15.8994764 C84.9158986,13.939267 81.1479263,13.0136126 76.7246544,13.0136126 C69.7347926,13.0136126 65.1476959,16.8795812 65.1476959,22.7057592 C65.1476959,27.3340314 68.5334101,29.2397906 73.502765,30.5465969 L75.9601382,31.2 C78.9089862,31.9623037 80.9841014,32.9424084 80.9841014,34.739267 C80.9841014,36.5361257 79.1274194,37.6795812 76.3970046,37.6795812 C73.502765,37.6795812 70.7177419,37.1350785 67.9327189,35.5015707 L65.1476959,39.9664921 C67.8235023,42.3078534 71.8099078,43.4513089 76.287788,43.4513089 Z M107.359908,37.0806283 C104.957143,37.0806283 103.318894,35.3382199 103.318894,32.6701571 L103.318894,19.6020942 L112.001613,19.6020942 L112.001613,13.5581152 L103.318894,13.5581152 L103.318894,4.95497382 L95.8921659,4.95497382 L95.8921659,13.5581152 L91.0320276,13.5581152 L91.0320276,19.6020942 L95.8921659,19.6020942 L95.8921659,34.1947644 C95.8921659,39.7486911 99.5509217,43.4513089 104.957143,43.4513089 C107.578341,43.4513089 110.199539,43.0157068 112.438479,42.0900524 L112.438479,36.1005236 C110.745622,36.808377 109.052765,37.0806283 107.359908,37.0806283 Z M16.3824885,51.6188482 L0,51.6188482 L0,91.9120419 L7.69976959,91.9120419 L7.69976959,78.1905759 L16.109447,78.1905759 C24.7921659,78.1905759 30.5260369,72.7455497 30.5260369,64.6324607 C30.5260369,56.8460733 24.9013825,51.6188482 16.3824885,51.6188482 Z M15.5633641,71.8198953 L7.69976959,71.8198953 L7.69976959,57.9895288 L15.5633641,57.9895288 C19.8228111,57.9895288 22.6078341,60.7664921 22.6078341,64.904712 C22.6078341,69.0429319 19.9320276,71.8198953 15.5633641,71.8198953 Z M41.4476959,66.4837696 L41.3384793,62.5633508 L34.1847926,62.5633508 L34.1847926,91.9120419 L41.6115207,91.9120419 L41.6115207,76.1759162 C41.6115207,71.765445 45.6525346,68.8251309 51.7686636,68.8251309 L52.2601382,62.0188482 C47.5092166,62.0188482 43.7958525,63.5979058 41.4476959,66.4837696 Z M60.2329493,57.7717277 C62.7995392,57.7717277 64.6016129,55.9748691 64.6016129,53.4157068 C64.6016129,50.8565445 62.7995392,49.0052356 60.2329493,49.0052356 C57.6663594,49.0052356 55.8096774,50.8565445 55.8096774,53.4157068 C55.8096774,55.9748691 57.6663594,57.7717277 60.2329493,57.7717277 Z M56.5195853,91.9120419 L63.9463134,91.9120419 L63.9463134,62.5633508 L56.5195853,62.5633508 L56.5195853,91.9120419 Z M87.2640553,62.0188482 C83.3322581,62.0188482 79.8919355,63.4890052 77.6529954,66.2659686 L77.5437788,62.5633508 L70.3900922,62.5633508 L70.3900922,91.9120419 L77.8168203,91.9120419 L77.8168203,74.6513089 C77.8168203,70.8397906 80.547235,68.3350785 84.6974654,68.3350785 C88.8476959,68.3350785 91.5781106,70.8397906 91.5781106,74.6513089 L91.5781106,91.9120419 L99.0048387,91.9120419 L99.0048387,73.4534031 C99.0048387,66.5926702 94.3085253,62.0188482 87.2640553,62.0188482 Z M119.046083,92.4565445 C123.469355,92.4565445 127.45576,91.1497382 130.240783,88.3727749 L126.035945,83.4722513 C124.343088,85.2691099 122.104147,86.0858639 119.373733,86.0858639 C114.34977,86.0858639 111.073272,82.5465969 111.073272,77.2104712 C111.073272,71.8743455 114.404378,68.3350785 119.319124,68.3350785 C121.776498,68.3350785 123.578571,69.0973822 125.107604,70.4041885 L129.312442,65.3947644 C126.582028,63.2712042 123.141705,62.0188482 119.209908,62.0188482 C109.708065,62.0188482 103.373502,68.1172775 103.373502,77.2104712 C103.373502,86.3581152 109.653456,92.4565445 119.046083,92.4565445 Z M138.213594,57.7717277 C140.780184,57.7717277 142.582258,55.9748691 142.582258,53.4157068 C142.582258,50.8565445 140.780184,49.0052356 138.213594,49.0052356 C135.647005,49.0052356 133.790323,50.8565445 133.790323,53.4157068 C133.790323,55.9748691 135.647005,57.7717277 138.213594,57.7717277 Z M134.50023,91.9120419 L141.926959,91.9120419 L141.926959,62.5633508 L134.50023,62.5633508 L134.50023,91.9120419 Z M165.57235,62.0188482 C161.039862,62.0188482 157.763364,63.8701571 155.688249,66.973822 L155.524424,62.5633508 L148.370737,62.5633508 L148.370737,103.891099 L155.797465,103.891099 L155.797465,87.6649215 C157.872581,90.6596859 161.09447,92.4565445 165.57235,92.4565445 C173.490553,92.4565445 179.66129,86.3036649 179.66129,77.1015707 C179.66129,68.008377 173.490553,62.0188482 165.57235,62.0188482 Z M163.879493,86.0858639 C159.019355,86.0858639 155.797465,82.5465969 155.797465,77.2104712 C155.797465,71.8743455 159.019355,68.3350785 163.879493,68.3350785 C168.685023,68.3350785 171.961521,71.8743455 171.961521,77.1560209 C171.961521,82.5465969 168.685023,86.0858639 163.879493,86.0858639 Z M183.920737,91.9120419 L191.347465,91.9120419 L191.347465,49.4408377 L183.920737,49.4408377 L183.920737,91.9120419 Z M225.586866,76.7748691 C225.586866,67.8994764 219.689171,62.0188482 210.897235,62.0188482 C202.050691,62.0188482 196.207604,68.1717277 196.207604,77.4282723 C196.207604,86.4670157 202.214516,92.4565445 211.224885,92.4565445 C216.794931,92.4565445 221.436636,89.9518325 224.057834,86.0314136 L218.323963,83.1455497 C216.576498,85.2691099 214.119124,86.6303665 211.115668,86.6303665 C206.801613,86.6303665 204.617281,84.0167539 204.071198,79.878534 L225.368433,79.878534 C225.47765,79.0073298 225.586866,77.8094241 225.586866,76.7748691 Z M210.897235,67.8450262 C214.883641,67.8450262 217.231797,70.4041885 217.77788,74.8691099 L204.071198,74.8691099 C204.671889,70.4041885 206.965438,67.8450262 210.897235,67.8450262 Z" id="MCA Creative" fill="#FFFFFF"></path>
                    <path d="M232.030645,92.4565445 C234.706452,92.4565445 236.890783,90.278534 236.890783,87.6104712 C236.890783,84.9424084 234.706452,82.7643979 232.030645,82.7643979 C229.354839,82.7643979 227.170507,84.9424084 227.170507,87.6104712 C227.170507,90.278534 229.354839,92.4565445 232.030645,92.4565445 Z" id="Path" fill="#FF2F2F"></path>
                </g>
            </g>
        </g>
    </g>
</svg>