<?xml version="1.0" encoding="UTF-8"?>
<svg width="150px"  viewBox="0 0 127 22" version="1.1" xmlns="http://www.w3.org/2000/svg" xmlns:xlink="http://www.w3.org/1999/xlink">
    <!-- Generator: Sketch 48.2 (47327) - http://www.bohemiancoding.com/sketch -->
    <title>Page 1</title>
    <desc>Created with Sketch.</desc>
    <defs>
        <polygon id="path-1" points="0.200218705 0.622548387 26.95746 0.622548387 26.95746 21 0.200218705 21"></polygon>
    </defs>
    <g id="Logo-Parade" stroke="none" stroke-width="1" fill="none" fill-rule="evenodd" transform="translate(-686.000000, -316.000000)">
        <g id="Page-1" transform="translate(686.000000, 316.124352)">
            <polygon id="Fill-1" fill="#FEFEFE" points="22.991757 1.02521123 22.9645767 16.0381575 10.4943885 1 0.0794501454 1 0 1.02521123 0.0529667636 21 6.06190671 20.9461706 6.08839009 5.9073317 18.5857586 21 29 21 28.9728197 1"></polygon>
            <g id="Group-11" transform="translate(31.000000, 0.000000)">
                <path d="M64.1893986,0.908012903 L64.2418878,20.7658839 L57.9169381,20.7658839 L57.8900029,0.934432258 L57.9431827,0.882948387 C60.0337727,0.882948387 62.1250532,0.856529032 64.1893986,0.908012903" id="Fill-2" fill="#FEFEFE"></path>
                <polygon id="Fill-4" fill="#FEFEFE" points="35.8458475 10.4858419 35.8727827 10.5115839 36.6400921 9.88903548 46.7753439 0.907809677 55.1915741 0.907809677 43.6004374 10.5380032 43.6273727 10.6416484 56.6730129 20.7135194 47.4894734 20.7663581 35.9004086 10.5894871 35.8458475 10.6687452 35.8458475 20.7663581 29.5215885 20.7663581 29.5215885 0.907809677 35.8458475 0.907809677"></polygon>
                <g id="Group-8">
                    <mask id="mask-2" fill="white">
                        <use xlink:href="#path-1"></use>
                    </mask>
                    <g id="Clip-7"></g>
                    <path d="M7.23998849,5.58112258 C6.71026187,5.68409032 6.04862158,5.89205806 5.96919712,6.48886452 C5.96919712,9.44783226 5.88977266,12.4589613 6.02237698,15.3915097 C6.2074705,15.8853484 6.76344173,15.8338645 7.15987338,15.9618968 L18.5921612,15.9883161 C19.5714993,15.9104129 20.7366216,16.1448 21.2656576,15.1842194 L21.2919022,6.80115484 L21.2117871,6.15150968 C21.0536288,5.76199355 20.6565065,5.70915484 20.312564,5.6061871 L7.23998849,5.58112258 Z M19.6509237,0.673896774 C22.2712403,0.777541935 25.1022043,0.959767742 26.5049094,3.50415484 C26.8226072,4.20392903 26.9814561,4.95654194 26.9545209,5.81415484 L26.9282763,16.6115419 C26.8495424,18.0659613 25.8163338,19.3374774 24.5469237,20.0386065 C21.7946935,21.2064774 18.4602475,20.9212839 15.2577151,20.9978323 C11.4736576,20.9463484 7.58393094,21.1800581 4.06370072,20.5568323 C2.50283741,20.3231226 0.835614388,19.0516065 0.412247482,17.5206387 L0.200218705,16.2741871 L0.253398561,4.82850968 C0.30588777,3.37409032 1.60292374,2.10257419 2.84677986,1.45292903 C4.88418993,0.622412903 7.34565755,0.726058065 9.70076547,0.622412903 L19.6509237,0.673896774 Z" id="Fill-6" fill="#FEFEFE" mask="url(#mask-2)"></path>
                </g>
                <path d="M80.621905,5.89205806 L76.7314878,12.9785419 L84.5130129,12.9785419 C83.2166676,10.6170581 81.9182504,8.22847742 80.621905,5.89205806 Z M95.7857612,20.6868968 L95.7857612,20.7661548 L88.7998619,20.7661548 C88.1651568,19.6219935 87.5297612,18.5327032 86.9468547,17.3912516 L86.814941,17.3390903 L74.4033151,17.3390903 L72.4978187,20.7133161 L65.4331856,20.7661548 L76.5733295,0.908283871 L84.7512863,0.908283871 L95.7857612,20.6868968 Z" id="Fill-9" fill="#FEFEFE"></path>
            </g>
        </g>
    </g>
</svg>