<?xml version="1.0" encoding="UTF-8"?>
<svg width="137px" height="60px" viewBox="0 0 137 60" version="1.1" xmlns="http://www.w3.org/2000/svg" xmlns:xlink="http://www.w3.org/1999/xlink">
    <!-- Generator: Sketch 48.2 (47327) - http://www.bohemiancoding.com/sketch -->
    <title>Page 1</title>
    <desc>Created with Sketch.</desc>
    <defs>
        <polygon id="path-1" points="0 0.232 136.650113 0.232 136.650113 59.9997333 0 59.9997333"></polygon>
    </defs>
    <g id="Logo-Parade" stroke="none" stroke-width="1" fill="none" fill-rule="evenodd" transform="translate(-381.000000, -78.000000)">
        <g id="Page-1" transform="translate(381.000000, 77.937824)">
            <path d="M113.754159,21 C110.042257,21 107.806633,23.3283793 107,27 L120,27 C119.593902,23.5392781 117.05579,21 113.754159,21" id="Fill-1" fill="#FFFFFF"></path>
            <path d="M87.5297402,22.0005753 C83.507053,21.9460046 82,25.7823195 82,29.920137 C82,33.6616354 83.3247326,38 87.5297402,38 C91.9164218,37.9461115 93,33.3076085 93,29.920137 C93,25.6336145 91.2065358,22.0537816 87.5297402,22.0005753" id="Fill-3" fill="#FFFFFF"></path>
            <g id="Group-7">
                <mask id="mask-2" fill="white">
                    <use xlink:href="#path-1"></use>
                </mask>
                <g id="Clip-6"></g>
                <path d="M133.482122,20.9544 L132.554686,20.9544 C132.554686,20.9544 132.545955,20.9544 132.545955,17.7810667 L131.438539,20.9544 L130.671607,20.9544 C130.671607,20.9544 130.663549,20.9544 129.558818,17.8110667 L129.558818,20.9544 L128.619965,20.9544 L128.619965,16.4750667 L130.020857,16.4750667 C130.020857,16.4750667 130.032946,16.4750667 131.092009,19.5557333 L132.093318,16.4750667 L133.482122,16.4750667 L133.482122,20.9544 Z M128.105544,17.2990667 L126.757034,17.2990667 L126.757034,20.9544 L125.760426,20.9544 L125.760426,17.2990667 L124.413259,17.2990667 L124.413259,16.4750667 L128.105544,16.4750667 L128.105544,17.2990667 Z M123.254803,30.6690667 L107.070671,30.6690667 C107.070671,34.4190667 109.521897,37.1570667 113.687637,37.1570667 C119.089063,37.1570667 119.089063,33.6457333 121.981509,33.6457333 C123.696696,33.6457333 124.928352,35.1090667 124.928352,36.4244 C124.928352,40.7077333 118.005823,42.7017333 113.687637,42.7017333 C105.54621,42.7017333 101.524857,38.2524 100.318049,33.2604 C99.2348083,38.4937333 95.7809309,42.7017333 89.646823,42.7017333 C86.3621809,42.7017333 83.9149848,41.3864 82.5886368,39.0990667 L82.4818574,39.0990667 L82.4818574,48.5937333 C82.4818574,50.9337333 81.059475,52.1564 78.9044113,52.1564 C76.7459897,52.1564 75.3262936,50.9337333 75.3262936,48.5937333 L75.3262936,22.1050667 L67.2768721,44.7497333 C65.5630289,49.6170667 63.5946613,52.1564 59.0817201,52.1564 C55.8931123,52.1564 54.5667642,50.5990667 54.5667642,48.8850667 C54.5667642,46.9844 55.9441515,46.0130667 57.8608083,46.0130667 L58.596176,46.0130667 C59.5236123,46.0130667 60.553127,45.9724 61.0910534,43.7784 L53.6413426,22.6890667 C53.3787593,21.9270667 53.1779603,21.3530667 53.0308868,20.8710667 C52.8629946,21.0910667 52.6742838,21.2890667 52.451323,21.5204 L47.1593623,27.0237333 L54.6198181,36.9570667 C54.8622544,37.2917333 55.3565289,38.0757333 55.3565289,39.2450667 C55.3565289,41.0517333 53.8831074,42.7017333 51.9684652,42.7017333 C50.200225,42.7017333 49.2640583,41.8257333 48.7268034,41.0517333 L41.9620926,31.5470667 L39.4571417,33.7397333 L39.4571417,39.1497333 C39.4571417,41.4804 38.0381172,42.7017333 35.879024,42.7017333 C33.7125436,42.7017333 32.2915044,41.4804 32.2915044,39.1497333 L32.2915044,36.5284 C31.0074652,40.7277333 26.2211956,42.7017333 21.6008034,42.7017333 C15.1309113,42.7017333 9.73284265,39.8290667 9.73284265,36.3210667 C9.73284265,34.7644 10.616627,33.3544 12.6259603,33.3544 C15.719877,33.3544 16.014024,37.7404 21.3066564,37.7404 C23.8539162,37.7404 25.4737397,36.6130667 25.4737397,35.1610667 C25.4737397,33.3544 23.9062985,33.0610667 21.3603819,32.4244 L17.1402446,31.4117333 C12.9738328,30.3877333 9.73284265,28.6744 9.73284265,23.8997333 C9.73284265,18.1157333 15.5204211,15.9630667 20.4765975,15.9630667 C25.9156319,15.9630667 31.4177936,18.1157333 31.4177936,21.3724 C31.4177936,23.0337333 30.2808279,24.4864 28.4199113,24.4864 C25.6201417,24.4864 25.5261221,21.2277333 21.0111662,21.2277333 C18.5075583,21.2277333 16.8877348,21.9057333 16.8877348,23.4204 C16.8877348,25.0710667 18.5075583,25.4677333 20.7176907,25.9490667 L23.7054995,26.6377333 C27.1459456,27.4110667 31.1350632,28.7577333 32.2915044,32.1430667 L32.2915044,9.92573333 C32.2915044,7.59706667 33.7125436,6.37506667 35.879024,6.37506667 C38.0381172,6.37506667 39.4571417,7.59706667 39.4571417,9.92573333 L39.4571417,26.0937333 L47.401127,17.3317333 C48.1378377,16.5484 49.074676,15.9630667 50.1485142,15.9630667 C51.3143574,15.9630667 52.5560877,16.7150667 53.1571417,17.8010667 C53.7367054,16.6937333 54.8938181,15.9630667 56.2389701,15.9630667 C58.1542838,15.9630667 59.4799603,17.0377333 59.9117789,18.6470667 L64.5314995,35.2550667 L64.6255191,35.2550667 L68.9934015,19.1390667 C69.4870044,17.3317333 70.4654799,15.9630667 72.4338475,15.9630667 C74.1275436,15.9630667 75.1060191,16.7977333 75.6224554,17.6550667 C76.0515877,16.5584 77.0092446,15.9630667 78.5585534,15.9630667 C80.6719799,15.9630667 81.7975289,17.1430667 81.7975289,19.3264 L81.7975289,20.4437333 L81.9043083,20.4437333 C83.0829113,17.4257333 85.9753574,15.9630667 89.4487103,15.9630667 C94.5613623,15.9630667 99.1273574,19.1484 100.359686,25.8017333 C101.747818,19.7850667 106.407833,15.9630667 113.44923,15.9630667 C121.689377,15.9630667 126.399088,21.7590667 126.399088,27.6090667 C126.399088,30.0437333 125.665063,30.6690667 123.254803,30.6690667 Z M136.650583,18.9190667 C136.650583,14.7930667 133.29274,11.4604 129.139088,11.4604 C126.988053,11.4604 125.064009,12.3490667 123.696696,13.7797333 C120.518833,11.5857333 116.666715,10.3017333 112.500975,10.3017333 C108.29024,10.3017333 104.409245,11.6157333 101.211906,13.8537333 C99.7700485,12.5257333 97.8533917,11.7210667 95.7406368,11.7210667 C94.1705093,11.7210667 92.7078328,12.1717333 91.4674456,12.9437333 C88.5333623,7.74306667 82.9344946,4.23173333 76.5069113,4.23173333 C70.6239701,4.23173333 65.4455044,7.1584 62.3421858,11.6157333 C59.7546319,8.97506667 56.1342054,7.3344 52.1256123,7.3344 C49.4742593,7.3344 47.0022152,8.05573333 44.8767005,9.3084 C44.822975,4.28506667 40.7190191,0.231733333 35.6473328,0.231733333 C30.5447544,0.231733333 26.4099064,4.33706667 26.4099064,9.39306667 L26.4320681,9.74706667 C25.442176,9.6024 24.4307936,9.51773333 23.3999358,9.51773333 C20.3913083,9.51773333 17.5499015,10.1757333 14.9932397,11.3464 C13.5520534,10.5830667 11.9208132,10.1444 10.1747348,10.1444 C4.5664652,10.1444 -0.000201470588,14.6664 -0.000201470588,20.2450667 C-0.000201470588,23.2017333 1.29458284,25.8437333 3.3247348,27.6937333 C3.27100931,28.2997333 3.24078873,28.9150667 3.24078873,29.5310667 C3.24078873,40.5830667 12.2680142,49.5324 23.3999358,49.5324 C27.7241662,49.5324 31.7341025,48.1744 35.0160583,45.8777333 C37.9736466,49.8890667 42.7404407,52.5104 48.1270926,52.5104 C48.2640926,52.5104 48.3910191,52.5010667 48.5159309,52.4897333 C50.0739701,56.8657333 54.2524701,59.9997333 59.1864848,59.9997333 C64.1735534,59.9997333 68.4138377,56.7824 69.9067348,52.3230667 C71.6239358,55.5510667 75.0207299,57.7437333 78.9467201,57.7437333 C83.8498426,57.7437333 87.9410387,54.3057333 88.9289162,49.7317333 C89.6333917,49.8257333 90.3627152,49.8890667 91.0880093,49.8890667 C95.0898868,49.8890667 98.7190436,48.3850667 101.484563,45.9297333 C104.618774,48.0504 108.418509,49.2944 112.500975,49.2944 C123.349495,49.2944 132.134955,40.5610667 132.134955,29.7924 C132.134955,28.4657333 132.007357,27.1604 131.746789,25.9070667 C134.606328,24.8517333 136.650583,22.1257333 136.650583,18.9190667 Z" id="Fill-5" fill="#FFFFFF" mask="url(#mask-2)"></path>
            </g>
        </g>
    </g>
</svg>