<?xml version="1.0" encoding="UTF-8"?>
<svg width="61px" height="61px" viewBox="0 0 61 61" version="1.1" xmlns="http://www.w3.org/2000/svg" xmlns:xlink="http://www.w3.org/1999/xlink">
    <!-- Generator: Sketch 50 (54983) - http://www.bohemiancoding.com/sketch -->
    <title>square</title>
    <desc>Created with Sketch.</desc>
    <defs>
        <polygon id="path-1" points="0 0.000646464646 64 0.000646464646 64 64 0 64"></polygon>
    </defs>
    <g id="square" stroke="none" stroke-width="1" fill="none" fill-rule="evenodd">
        <g id="Group-3">
            <mask id="mask-2" fill="white">
                <use xlink:href="#path-1"></use>
            </mask>
            <g id="Clip-2"></g>
            <path d="M50,47 C50,48.7770191 48.7763939,50 47,50 L14,50 C12.223298,50 11,48.7770191 11,47 L11,14 C11,12.2235971 12.223298,11 14,11 L47,11 C48.7763939,11 50,12.2235971 50,14 L50,47 Z M10.194702,0.000484848485 C4.56421717,0.000484848485 0,4.56472507 0,10.1949303 L0,50.8060394 C0,56.4362446 4.56421717,61.0004848 10.194702,61.0004848 L50.805298,61.0004848 C56.4357828,61.0004848 61,56.4362446 61,50.8060394 L61,10.1949303 C61,4.56472507 56.4357828,0.000484848485 50.805298,0.000484848485 L10.194702,0.000484848485 Z" id="Fill-1" fill="#FFFFFF" mask="url(#mask-2)"></path>
        </g>
        <path d="M23.8860556,39 C22.8424444,39 22,38.1515741 22,37.1045 L22,23.8955 C22,22.8490556 22.8424444,22 23.8860556,22 L37.1139444,22 C38.1578704,22 39,22.8490556 39,23.8955 L39,37.1045 C39,38.1515741 38.1578704,39 37.1139444,39 L23.8860556,39 Z" id="Fill-4" fill="#FFFFFF"></path>
    </g>
</svg>