<?xml version="1.0" encoding="UTF-8"?>
<svg width="80px"  viewBox="0 0 72 64" version="1.1" xmlns="http://www.w3.org/2000/svg" xmlns:xlink="http://www.w3.org/1999/xlink">
    <!-- Generator: Sketch 48.2 (47327) - http://www.bohemiancoding.com/sketch -->
    <title>Page 1</title>
    <desc>Created with Sketch.</desc>
    <defs></defs>
    <g id="Logo-Parade" stroke="none" stroke-width="1" fill="none" fill-rule="evenodd" transform="translate(-713.000000, -76.000000)">
        <g id="Page-1" transform="translate(713.000000, 75.937824)" fill="#FEFEFE">
            <polygon id="Fill-1" points="0 45.9629 0 51.2239 5.128 51.2239 5.128 63.8709 12.335 63.8709 12.335 51.2239 17.296 51.2239 17.296 45.9629"></polygon>
            <polygon id="Fill-2" points="22.2822 45.9629 15.4932 63.8709 22.4152 63.8709 26.0572 53.1979 29.7442 63.8709 36.7492 63.8709 29.7992 45.9629"></polygon>
            <polygon id="Fill-3" points="35.0973 45.9629 35.0973 51.2239 40.2253 51.2239 40.2253 63.8709 47.4333 63.8709 47.4333 51.2239 52.3943 51.2239 52.3943 45.9629"></polygon>
            <polygon id="Fill-4" points="57.3795 45.9629 50.5915 63.8709 57.5135 63.8709 61.1545 53.1979 64.8425 63.8709 71.8475 63.8709 64.8965 45.9629"></polygon>
            <g id="Group-11" transform="translate(9.000000, 0.871100)">
                <path d="M52.4111,12.1973 C51.7661,10.9283 50.9131,9.7113 49.8561,8.5693 C47.4791,6.0043 44.1231,3.8693 40.1521,2.3963 C36.1511,0.9123 31.5841,0.1293 26.9461,0.1293 C22.3071,0.1293 17.7401,0.9123 13.7391,2.3963 C9.7681,3.8693 6.4121,6.0043 4.0351,8.5693 C2.9781,9.7123 2.1251,10.9293 1.4791,12.1993 C6.6471,10.9503 15.4891,9.3003 23.6981,9.1273 C24.4901,9.1093 25.0351,9.3623 25.3941,9.8173 C25.8321,10.3703 25.7991,12.3463 25.7871,13.2293 L25.5541,36.0603 C26.0161,36.0753 26.4801,36.0873 26.9461,36.0873 C27.4141,36.0873 27.8821,36.0773 28.3451,36.0613 L28.1101,13.2293 C28.0991,12.3463 28.0651,10.3703 28.5031,9.8173 C28.8621,9.3623 29.4071,9.1093 30.1991,9.1273 C38.4051,9.3003 47.2421,10.9493 52.4111,12.1973" id="Fill-5"></path>
                <path d="M53.5136,15.167 C45.9496,13.456 40.8986,13.141 35.9116,12.864 C31.5686,12.624 31.5126,14.175 31.9466,17.139 C31.9726,17.319 32.0086,17.547 32.0506,17.808 C33.5076,26.437 35.3216,33.862 35.6336,35.122 C46.2276,32.702 53.8666,25.99 53.8666,18.107 C53.8666,17.114 53.7446,16.132 53.5136,15.167" id="Fill-7"></path>
                <path d="M21.9511,17.1387 C22.3861,14.1747 22.3291,12.6237 17.9851,12.8647 C12.9981,13.1407 7.9451,13.4557 0.3771,15.1677 C0.1461,16.1327 0.0251,17.1157 0.0251,18.1077 C0.0251,21.5147 1.4121,24.8127 4.0351,27.6447 C6.4121,30.2107 9.7681,32.3447 13.7391,33.8177 C15.1791,34.3517 16.6941,34.7867 18.2581,35.1357 C18.5521,33.9537 20.4071,26.3737 21.8831,17.5907 C21.9081,17.4217 21.9321,17.2667 21.9511,17.1387" id="Fill-9"></path>
            </g>
        </g>
    </g>
</svg>