<?xml version="1.0" encoding="UTF-8"?>
<svg width="110px" height="76px" viewBox="0 0 110 76" version="1.1" xmlns="http://www.w3.org/2000/svg" xmlns:xlink="http://www.w3.org/1999/xlink">
    <!-- Generator: Sketch 48.2 (47327) - http://www.bohemiancoding.com/sketch -->
    <title>Page 1</title>
    <desc>Created with Sketch.</desc>
    <defs>
        <polygon id="path-1" points="0 0.299360797 109.635289 0.299360797 109.635289 19.9995957 0 19.9995957"></polygon>
    </defs>
    <g id="Logo-Parade" stroke="none" stroke-width="1" fill="none" fill-rule="evenodd" transform="translate(-394.000000, -289.000000)">
        <g id="Page-1" transform="translate(394.000000, 289.124352)">
            <g id="Group-3" transform="translate(0.000000, 55.000000)">
                <mask id="mask-2" fill="white">
                    <use xlink:href="#path-1"></use>
                </mask>
                <g id="Clip-2"></g>
                <path d="M60.0089111,19.7308 L63.7435333,19.7308 L63.7435333,9.5343 L67.1530444,9.5343 L67.1530444,6.0173 L63.7435333,6.0173 L63.7435333,5.4763 C63.7445111,3.4248 66.0750444,3.6548 67.6223778,3.9638 L67.6223778,0.6638 C62.4044667,-0.4942 60.0538889,1.1458 60.0089111,5.0373 L60.0089111,19.7308 Z M-0.000244444444,5.9713 L4.00033333,5.9713 L7.39224444,14.5533 L10.7841556,5.9713 L14.7842444,5.9713 L9.39277778,19.6143 L9.37273333,19.6623 L9.37322222,19.6623 L5.41126667,19.6623 L5.39171111,19.6133 L-0.000244444444,5.9713 Z M103.553267,8.9708 C104.789667,8.9708 105.849089,9.9643 106.293978,11.3743 L100.812556,11.3743 C101.257933,9.9643 102.316867,8.9708 103.553267,8.9708 Z M103.284378,5.7598 C106.791178,5.7598 109.635533,8.9398 109.635533,12.8593 C109.635533,13.3573 109.589089,13.8433 109.502067,14.3123 L101.4442,14.3123 L100.803267,14.3123 C101.022778,14.7968 101.200733,15.2363 101.4442,15.6128 C102.618511,16.7703 103.512689,16.9698 105.219889,16.9698 C106.701711,16.9698 107.788022,16.7643 108.602022,16.4073 L109.037133,16.3213 L109.050333,18.8438 C107.300111,20.1638 104.834156,19.9923 103.284378,19.9923 C99.7766,19.9923 96.9327333,16.7788 96.9327333,12.8593 C96.9327333,8.9398 99.7766,5.7598 103.284378,5.7598 Z M82.6992222,19.7203 L82.6992222,19.8058 L86.3013556,19.8058 L86.3013556,19.7203 L86.3854444,19.7203 L86.3854444,9.7443 C87.2781556,9.4993 88.1566889,9.3968 89.0322889,9.3838 C90.9844222,9.4678 91.9309111,10.6408 91.8707778,12.7393 L91.8707778,19.8058 L95.6865556,19.8058 L95.6865556,12.6073 C95.8263778,8.3238 93.6200222,6.0948 89.0674889,5.9243 C86.9608667,5.9518 84.8214889,6.1968 82.6992222,6.8763 L82.6992222,6.9093 L82.6992222,19.7203 Z M74.3690444,8.9853 C76.0063333,8.9853 77.3341556,10.7198 77.3341556,12.8593 C77.3341556,14.9978 76.0063333,16.7328 74.3690444,16.7328 C72.7317556,16.7328 71.4044222,14.9978 71.4044222,12.8593 C71.4044222,10.7198 72.7317556,8.9853 74.3690444,8.9853 Z M74.3690444,5.7598 C78.2019333,5.7598 81.3102889,8.9393 81.3102889,12.8593 C81.3102889,16.7793 78.2019333,19.9578 74.3690444,19.9578 C70.5366444,19.9578 67.4278,16.7793 67.4278,12.8593 C67.4278,8.9393 70.5366444,5.7598 74.3690444,5.7598 Z M54.0068222,9.4313 L54.0068222,15.3588 C53.9994889,15.7778 53.1160667,16.7168 51.513,16.7008 C49.9089556,16.6853 48.6549556,15.1068 48.6549556,12.9683 C48.6549556,10.2348 51.1761556,8.3333 54.0068222,9.4313 Z M54.2678889,19.8063 L57.6774,19.8063 L57.6774,6.6998 C55.5707778,6.1988 54.0278444,5.8688 51.4866,5.8688 C47.6542,5.8688 44.5458444,9.0483 44.5458444,12.9683 C44.5458444,16.8878 47.5534889,19.9748 50.3773111,19.9748 C53.2011333,19.9748 53.4763778,19.0723 54.2566444,18.7608 L54.2678889,19.8063 Z M39.4702,16.2928 L39.4702,9.4253 C38.9387778,9.1443 38.3354889,8.9853 37.6945556,8.9853 C35.5776667,8.9853 33.8606889,10.7198 33.8606889,12.8593 C33.8606889,14.9978 35.5776667,16.7328 37.6945556,16.7328 C38.3354889,16.7328 38.9387778,16.5733 39.4702,16.2928 Z M39.4702,0.6028 L43.1407778,0.6028 L43.1407778,19.4093 C41.0341556,19.8048 38.9920667,19.9578 36.9499778,19.9578 C33.1175778,19.9578 30.0092222,16.7793 30.0092222,12.8593 C30.0092222,8.9393 33.1175778,5.7598 36.9499778,5.7598 C37.8387778,5.7598 38.6894444,5.9308 39.4702,6.2423 L39.4702,0.6028 Z M21.6379778,8.9853 C23.2747778,8.9853 24.6026,10.7198 24.6026,12.8593 C24.6026,14.9978 23.2747778,16.7328 21.6379778,16.7328 C20.0006889,16.7328 18.6723778,14.9978 18.6723778,12.8593 C18.6723778,10.7198 20.0006889,8.9853 21.6379778,8.9853 Z M21.6379778,5.7598 C25.4703778,5.7598 28.5787333,8.9393 28.5787333,12.8593 C28.5787333,16.7793 25.4703778,19.9578 21.6379778,19.9578 C17.8050889,19.9578 14.6967333,16.7793 14.6967333,12.8593 C14.6967333,8.9393 17.8050889,5.7598 21.6379778,5.7598 Z" id="Fill-1" fill="#FEFEFE" mask="url(#mask-2)"></path>
            </g>
            <path d="M64.5389355,2.34591463 C60.1968379,4.51163512 57.2425258,8.48559416 57.0928484,13.0689194 C63.5493209,14.1723664 68.4847998,19.6232392 68.4847998,26.1920908 C68.4847998,33.6144427 62.2792428,39.5753812 54.6820251,39.5753812 C46.2787778,39.5753812 40.5522854,32.2271415 40.7005096,23.9924628 C40.7005096,11.953847 50.7477863,2.21076902 63.1632598,2.21076902 C63.5536804,2.21076902 63.9387727,2.23014474 64.3248339,2.24952045 C61.1583577,0.80893608 57.6455407,0 53.9476856,0 C40.1579896,0 29,11.1579896 29,24.9476856 C29,38.8420104 40.1579896,50 53.9476856,50 C67.7368972,50 79,38.8420104 79,24.9476856 C79,14.9396446 73.0647343,6.32181124 64.5389355,2.34591463" id="Fill-4" fill="#FEFEFE"></path>
        </g>
    </g>
</svg>